<svg width="25" height="25" viewBox="0 0 25 25" fill="none" xmlns="http://www.w3.org/2000/svg">
<path fill-rule="evenodd" clip-rule="evenodd" d="M8 7.5C8 9.98528 10.0147 12 12.5 12C14.9853 12 17 9.98528 17 7.5C17 5.01472 14.9853 3 12.5 3C10.0147 3 8 5.01472 8 7.5ZM20 20.5C20 16.3579 16.6421 13 12.5 13C8.35786 13 5 16.3579 5 20.5V22.5C5 22.7761 5.22386 23 5.5 23H19.5C19.7761 23 20 22.7761 20 22.5V20.5ZM12.5 11C14.433 11 16 9.433 16 7.5C16 5.567 14.433 4 12.5 4C10.567 4 9 5.567 9 7.5C9 9.433 10.567 11 12.5 11ZM19 20.5V22H6V20.5C6 16.9101 8.91015 14 12.5 14C16.0899 14 19 16.9101 19 20.5Z" fill="#C4C4C4"/>
</svg>
