<svg width="50" height="50" viewBox="0 0 50 50" fill="none" xmlns="http://www.w3.org/2000/svg">
<g id="iconspace_Stroller_25px">
<g id="Combined Shape">
<path fill-rule="evenodd" clip-rule="evenodd" d="M16.0251 33.5967C16.2181 35.8827 17.5096 37.8558 19.3698 38.9863C18.5303 39.7195 18 40.7978 18 42C18 44.2091 19.7909 46 22 46C24.2091 46 26 44.2091 26 42C26 41.2714 25.8052 40.5883 25.4649 40H32.5351C32.1948 40.5883 32 41.2714 32 42C32 44.2091 33.7909 46 36 46C38.2091 46 40 44.2091 40 42C40 39.7909 38.2091 38 36 38C35.9007 38 35.8023 38.0036 35.7048 38.0107C35.6569 38.0037 35.6078 38 35.5579 38H23C20.5792 38 18.5602 36.2796 18.099 33.9948C18.189 33.9983 18.2795 34 18.3704 34H34.1871C37.468 34 40.3087 31.7213 41.0204 28.5185L43.9763 15.2169C44.1151 14.5924 43.6399 14 43.0001 14H11.8139L11.3731 10.3934C11.0666 7.88523 8.93688 6 6.41006 6H5C4.44772 6 4 6.44772 4 7C4 7.55228 4.44772 8 5 8H6.41006C7.92615 8 9.20396 9.13114 9.3879 10.636L11.4132 27.773C11.7165 30.5029 13.5631 32.721 16.0251 33.5967ZM13.401 27.5522L12.1174 16H41.7535L39.068 28.0847C38.5597 30.3723 36.5306 32 34.1871 32H18.3704C15.8226 32 13.6823 30.0843 13.401 27.5522ZM36 44C37.1046 44 38 43.1046 38 42C38 40.8954 37.1046 40 36 40C34.8954 40 34 40.8954 34 42C34 43.1046 34.8954 44 36 44ZM24 42C24 43.1046 23.1046 44 22 44C20.8954 44 20 43.1046 20 42C20 40.8954 20.8954 40 22 40C23.1046 40 24 40.8954 24 42Z" fill="#F26627"/>
<path d="M19.3698 38.9863L19.6987 39.3629L20.213 38.9137L19.6294 38.559L19.3698 38.9863ZM16.0251 33.5967L16.5233 33.5547L16.4962 33.2336L16.1926 33.1256L16.0251 33.5967ZM25.4649 40V39.5H24.598L25.0321 40.2504L25.4649 40ZM32.5351 40L32.9679 40.2504L33.402 39.5H32.5351V40ZM35.7048 38.0107L35.632 38.5054L35.6864 38.5134L35.7412 38.5094L35.7048 38.0107ZM18.099 33.9948L18.1181 33.4952L17.4831 33.4709L17.6089 34.0938L18.099 33.9948ZM41.0204 28.5185L40.5323 28.41L41.0204 28.5185ZM43.9763 15.2169L43.4882 15.1085V15.1085L43.9763 15.2169ZM11.8139 14L11.3176 14.0607L11.3713 14.5H11.8139V14ZM11.3731 10.3934L11.8694 10.3327L11.3731 10.3934ZM9.3879 10.636L9.88444 10.5774L9.8842 10.5754L9.3879 10.636ZM11.4132 27.773L11.9101 27.7178L11.9097 27.7143L11.4132 27.773ZM12.1174 16V15.5H11.5588L11.6204 16.0552L12.1174 16ZM13.401 27.5522L13.8979 27.4969L13.401 27.5522ZM41.7535 16L42.2416 16.1085L42.3768 15.5H41.7535V16ZM39.068 28.0847L38.5799 27.9762L39.068 28.0847ZM19.6294 38.559C17.9009 37.5085 16.7024 35.6759 16.5233 33.5547L15.5268 33.6388C15.7337 36.0894 17.1182 38.2031 19.1101 39.4136L19.6294 38.559ZM18.5 42C18.5 40.9482 18.9633 40.0052 19.6987 39.3629L19.0408 38.6097C18.0973 39.4339 17.5 40.6475 17.5 42H18.5ZM22 45.5C20.067 45.5 18.5 43.933 18.5 42H17.5C17.5 44.4853 19.5147 46.5 22 46.5V45.5ZM25.5 42C25.5 43.933 23.933 45.5 22 45.5V46.5C24.4853 46.5 26.5 44.4853 26.5 42H25.5ZM25.0321 40.2504C25.3296 40.7647 25.5 41.3617 25.5 42H26.5C26.5 41.1812 26.2808 40.412 25.8977 39.7496L25.0321 40.2504ZM32.5351 39.5H25.4649V40.5H32.5351V39.5ZM32.5 42C32.5 41.3617 32.6704 40.7647 32.9679 40.2504L32.1023 39.7496C31.7192 40.412 31.5 41.1812 31.5 42H32.5ZM36 45.5C34.067 45.5 32.5 43.933 32.5 42H31.5C31.5 44.4853 33.5147 46.5 36 46.5V45.5ZM39.5 42C39.5 43.933 37.933 45.5 36 45.5V46.5C38.4853 46.5 40.5 44.4853 40.5 42H39.5ZM36 38.5C37.933 38.5 39.5 40.067 39.5 42H40.5C40.5 39.5147 38.4853 37.5 36 37.5V38.5ZM35.7412 38.5094C35.8266 38.5032 35.9129 38.5 36 38.5V37.5C35.8886 37.5 35.778 37.5041 35.6685 37.512L35.7412 38.5094ZM35.5579 38.5C35.5833 38.5 35.6081 38.5019 35.632 38.5054L35.7777 37.5161C35.7057 37.5055 35.6322 37.5 35.5579 37.5V38.5ZM23 38.5H35.5579V37.5H23V38.5ZM17.6089 34.0938C18.1163 36.6073 20.3365 38.5 23 38.5V37.5C20.8219 37.5 19.0042 35.952 18.5891 33.8959L17.6089 34.0938ZM18.3704 33.5C18.2859 33.5 18.2018 33.4984 18.1181 33.4952L18.0798 34.4944C18.1763 34.4981 18.2731 34.5 18.3704 34.5V33.5ZM34.1871 33.5H18.3704V34.5H34.1871V33.5ZM40.5323 28.41C39.8714 31.384 37.2336 33.5 34.1871 33.5V34.5C37.7023 34.5 40.7459 32.0585 41.5085 28.627L40.5323 28.41ZM43.4882 15.1085L40.5323 28.41L41.5085 28.627L44.4644 15.3254L43.4882 15.1085ZM43.0001 14.5C43.32 14.5 43.5576 14.7962 43.4882 15.1085L44.4644 15.3254C44.6726 14.3886 43.9597 13.5 43.0001 13.5V14.5ZM11.8139 14.5H43.0001V13.5H11.8139V14.5ZM10.8768 10.4541L11.3176 14.0607L12.3102 13.9393L11.8694 10.3327L10.8768 10.4541ZM6.41006 6.5C8.6842 6.5 10.6009 8.19671 10.8768 10.4541L11.8694 10.3327C11.5322 7.57376 9.18957 5.5 6.41006 5.5V6.5ZM5 6.5H6.41006V5.5H5V6.5ZM4.5 7C4.5 6.72386 4.72386 6.5 5 6.5V5.5C4.17157 5.5 3.5 6.17157 3.5 7H4.5ZM5 7.5C4.72386 7.5 4.5 7.27614 4.5 7H3.5C3.5 7.82843 4.17157 8.5 5 8.5V7.5ZM6.41006 7.5H5V8.5H6.41006V7.5ZM9.8842 10.5754C9.66961 8.81966 8.17883 7.5 6.41006 7.5V8.5C7.67347 8.5 8.73831 9.44262 8.89159 10.6967L9.8842 10.5754ZM11.9097 27.7143L9.88444 10.5774L8.89135 10.6947L10.9166 27.8317L11.9097 27.7143ZM16.1926 33.1256C13.906 32.3123 12.1917 30.2522 11.9101 27.7178L10.9162 27.8282C11.2413 30.7536 13.2203 33.1297 15.8575 34.0678L16.1926 33.1256ZM11.6204 16.0552L12.904 27.6074L13.8979 27.4969L12.6143 15.9448L11.6204 16.0552ZM41.7535 15.5H12.1174V16.5H41.7535V15.5ZM39.5561 28.1931L42.2416 16.1085L41.2654 15.8915L38.5799 27.9762L39.5561 28.1931ZM34.1871 32.5C36.7649 32.5 38.9969 30.7096 39.5561 28.1931L38.5799 27.9762C38.1224 30.0351 36.2962 31.5 34.1871 31.5V32.5ZM18.3704 32.5H34.1871V31.5H18.3704V32.5ZM12.904 27.6074C13.2135 30.3928 15.5679 32.5 18.3704 32.5V31.5C16.0774 31.5 14.1511 29.7759 13.8979 27.4969L12.904 27.6074ZM37.5 42C37.5 42.8284 36.8284 43.5 36 43.5V44.5C37.3807 44.5 38.5 43.3807 38.5 42H37.5ZM36 40.5C36.8284 40.5 37.5 41.1716 37.5 42H38.5C38.5 40.6193 37.3807 39.5 36 39.5V40.5ZM34.5 42C34.5 41.1716 35.1716 40.5 36 40.5V39.5C34.6193 39.5 33.5 40.6193 33.5 42H34.5ZM36 43.5C35.1716 43.5 34.5 42.8284 34.5 42H33.5C33.5 43.3807 34.6193 44.5 36 44.5V43.5ZM22 44.5C23.3807 44.5 24.5 43.3807 24.5 42H23.5C23.5 42.8284 22.8284 43.5 22 43.5V44.5ZM19.5 42C19.5 43.3807 20.6193 44.5 22 44.5V43.5C21.1716 43.5 20.5 42.8284 20.5 42H19.5ZM22 39.5C20.6193 39.5 19.5 40.6193 19.5 42H20.5C20.5 41.1716 21.1716 40.5 22 40.5V39.5ZM24.5 42C24.5 40.6193 23.3807 39.5 22 39.5V40.5C22.8284 40.5 23.5 41.1716 23.5 42H24.5Z" fill="#F26627"/>
</g>
</g>
</svg>
