<svg width="9" height="9" viewBox="0 0 9 9" fill="none" xmlns="http://www.w3.org/2000/svg">
<path fill-rule="evenodd" clip-rule="evenodd" d="M8.11921 2.27581L7.0834 1.24C6.87009 1.02669 6.52425 1.02669 6.31094 1.24L1.48951 6.06143C1.46384 6.0871 1.44653 6.11993 1.43986 6.15561L1.08226 8.06691C1.05899 8.19129 1.16792 8.30022 1.29229 8.27695L3.2036 7.91935C3.23928 7.91267 3.27211 7.89536 3.29778 7.8697L8.11921 3.04827C8.33252 2.83496 8.33252 2.48911 8.11921 2.27581ZM3.11593 7.54314L7.86538 2.7937C7.9381 2.72098 7.9381 2.60307 7.86538 2.53035L6.82957 1.49455C6.75685 1.42183 6.63894 1.42183 6.56622 1.49455L1.81758 6.24319L3.11593 7.54314ZM2.70969 7.64567L1.71461 6.64937L1.48535 7.87473L2.70969 7.64567Z" fill="#C4C4C4"/>
</svg>
