<svg width="17" height="21" viewBox="0 0 17 21" fill="none" xmlns="http://www.w3.org/2000/svg">
<path fill-rule="evenodd" clip-rule="evenodd" d="M3.5 0H13.5C15.433 0 17 1.567 17 3.5V17.5C17 19.433 15.433 21 13.5 21H3.5C1.567 21 0 19.433 0 17.5V3.5C0 1.567 1.567 0 3.5 0ZM3.5 1C2.11929 1 1 2.11929 1 3.5V17.5C1 18.8807 2.11929 20 3.5 20H13.5C14.8807 20 16 18.8807 16 17.5V3.5C16 2.11929 14.8807 1 13.5 1H3.5ZM12.5 6H4.5C4.22386 6 4 5.77614 4 5.5C4 5.22386 4.22386 5 4.5 5H12.5C12.7761 5 13 5.22386 13 5.5C13 5.77614 12.7761 6 12.5 6ZM4.5 11H12.5C12.7761 11 13 10.7761 13 10.5C13 10.2239 12.7761 10 12.5 10H4.5C4.22386 10 4 10.2239 4 10.5C4 10.7761 4.22386 11 4.5 11ZM12.5 16H4.5C4.22386 16 4 15.7761 4 15.5C4 15.2239 4.22386 15 4.5 15H12.5C12.7761 15 13 15.2239 13 15.5C13 15.7761 12.7761 16 12.5 16Z" fill="#C4C4C4"/>
</svg>
