<svg width="25" height="25" viewBox="0 0 25 25" fill="none" xmlns="http://www.w3.org/2000/svg">
<path fill-rule="evenodd" clip-rule="evenodd" d="M21 20.5V10.8227L22.1655 11.8716C22.3708 12.0564 22.6869 12.0397 22.8717 11.8345C23.0564 11.6292 23.0397 11.3131 22.8345 11.1284L12.8345 2.12835C12.6443 1.95722 12.3557 1.95722 12.1655 2.12835L2.16552 11.1284C1.96027 11.3131 1.94363 11.6292 2.12836 11.8345C2.31309 12.0397 2.62923 12.0564 2.83449 11.8716L4 10.8227V20.5C4 21.8807 5.11929 23 6.5 23H9.5C9.77615 23 10 22.7761 10 22.5L10 18.4695C10 17.6597 10.6699 17 11.5 17H13.5C14.3301 17 15 17.6597 15 18.4695L15 22.5C15 22.7761 15.2239 23 15.5 23H18.5C19.8807 23 21 21.8807 21 20.5ZM12.5 3.17268L20 9.92268V20.5C20 21.3284 19.3284 22 18.5 22H16L16 18.4695C16 17.1039 14.879 16 13.5 16H11.5C10.121 16 9 17.1039 9 18.4695L9 22H6.5C5.67158 22 5 21.3284 5 20.5V9.92268L12.5 3.17268Z" fill="#F26627"/>
</svg>
