<svg width="42" height="42" viewBox="0 0 42 42" fill="none" xmlns="http://www.w3.org/2000/svg">
<g id="iconspace_Favourite 2_25px">
<path id="Path" fill-rule="evenodd" clip-rule="evenodd" d="M11.3872 38.4989L21.0013 32.0895L30.6153 38.4989C31.2195 38.9017 32.0155 38.4 31.9128 37.6812L30.2922 26.337L38.3953 18.234C38.8847 17.7445 38.6053 16.9063 37.9201 16.8084L26.6274 15.1952L21.7734 3.86909C21.4824 3.19028 20.5201 3.19028 20.2292 3.86909L15.3752 15.1952L4.08249 16.8084C3.39725 16.9063 3.11786 17.7445 3.60731 18.234L11.7103 26.337L10.0897 37.6812C9.98704 38.4 10.7831 38.9017 11.3872 38.4989ZM21.4666 30.3811C21.1844 30.193 20.8168 30.193 20.5347 30.3811L12.0179 36.0589L13.4322 26.1588C13.4696 25.897 13.3816 25.633 13.1946 25.446L5.98254 18.234L16.0794 16.7915C16.3696 16.7501 16.6172 16.5603 16.7327 16.2909L21.0006 6.3324L25.2685 16.2909C25.384 16.5603 25.6316 16.7501 25.9218 16.7915L36.0187 18.234L28.8067 25.446C28.6197 25.633 28.5317 25.897 28.5691 26.1588L29.9834 36.0589L21.4666 30.3811Z" fill="#F26627"/>
</g>
</svg>
