<svg width="147" height="108" viewBox="0 0 147 108" fill="none" xmlns="http://www.w3.org/2000/svg">
<path d="M130.674 65.9923C130.397 65.9923 130.119 65.923 129.841 65.8537C128.173 65.3684 127.201 63.6354 127.687 61.9718L140.887 15.2503C141.373 13.5866 143.11 12.6162 144.777 13.1014C146.444 13.5866 147.417 15.3196 146.931 16.9833L133.731 63.7048C133.314 65.0911 132.064 65.9923 130.674 65.9923Z" fill="white"/>
<path d="M121.852 65.9923H117.544C116.641 65.9923 115.738 65.5764 115.113 64.8832C114.488 64.19 114.279 63.2195 114.488 62.3184L123.797 14.1412C124.144 12.4775 125.742 11.3684 127.479 11.6457C129.146 11.9923 130.258 13.5866 129.98 15.3196L121.435 59.7535H121.991C123.727 59.7535 125.117 61.1399 125.117 62.8729C125.117 64.6059 123.519 65.9923 121.852 65.9923Z" fill="white"/>
<path d="M109.764 66.0616C109.694 66.0616 109.694 66.0616 109.764 66.0616L105.109 65.9923C104.206 65.9923 103.372 65.5764 102.817 64.9525C102.261 64.3286 101.983 63.4275 102.052 62.5263L107.471 12.9628C107.68 11.2298 109.208 9.98203 110.945 10.19C112.681 10.398 113.932 11.923 113.724 13.656L108.722 59.8922H109.903C111.639 59.8922 113.029 61.3479 112.959 63.0809C112.82 64.7445 111.431 66.0616 109.764 66.0616Z" fill="white"/>
<path d="M90.1035 65.9923C85.1711 65.9923 81.1418 62.1797 80.9334 57.258L79.1966 19.1322C79.0577 16.0822 80.2387 13.1014 82.4617 11.0218C84.6848 8.94224 87.672 7.83312 90.7287 8.1104C96.2864 8.59564 100.524 13.3787 100.316 18.9243L99.2042 57.1194C99.1347 62.1104 95.1054 65.9923 90.1035 65.9923ZM89.8256 14.2798C88.7141 14.2798 87.672 14.6958 86.8384 15.4583C85.9353 16.3594 85.449 17.5379 85.5184 18.7856L87.2552 56.9114C87.3247 58.4365 88.5751 59.6842 90.173 59.6842C91.7708 59.6842 93.0213 58.4365 93.0907 56.8421L94.2023 18.647C94.2717 16.3594 92.535 14.4185 90.2424 14.2105C90.034 14.2798 89.8951 14.2798 89.8256 14.2798Z" fill="white"/>
<path d="M66.1361 65.9923C64.6772 65.9923 63.3573 64.9525 63.0794 63.4275L54.3956 16.4981C53.8398 13.5173 54.7429 10.5366 56.7576 8.31835C58.8417 6.10012 61.69 4.99101 64.7467 5.33761C69.1928 5.82284 72.6663 9.21951 73.2221 13.656L73.9863 20.4493C74.4031 24.1232 72.5969 27.7972 69.4012 29.6688L68.2897 30.2927C72.9442 33.4814 76.0704 38.4724 76.7651 44.2259L78.9187 62.3877C79.1271 64.1207 77.8766 65.6457 76.2093 65.8536C74.542 66.0616 72.9442 64.8139 72.7358 63.1502L70.5822 45.0578C70.0959 40.8293 67.6645 37.2246 64.1909 35.0757L69.1928 62.249C69.5402 63.9127 68.3592 65.5764 66.6919 65.8536C66.4835 65.9923 66.275 65.9923 66.1361 65.9923ZM63.7741 11.5071C62.871 11.5071 62.0373 11.8537 61.4121 12.5468C60.7174 13.3094 60.4395 14.3492 60.5784 15.3196L62.6626 26.4801L66.275 24.3312C67.3866 23.7073 68.0118 22.4596 67.8729 21.1425L67.1087 14.3492C66.9003 12.8241 65.7193 11.6457 64.1909 11.5071C63.9825 11.5071 63.8436 11.5071 63.7741 11.5071Z" fill="white"/>
<path d="M52.5198 65.9923C51.1304 65.9923 49.8105 65.0218 49.4631 63.6354L35.4301 6.86264C35.0132 5.19897 36.0553 3.46598 37.7226 3.05006C39.3899 2.63415 41.1267 3.67394 41.5435 5.33761L55.5766 62.1104C55.9934 63.7741 54.9513 65.5071 53.284 65.923C53.0756 65.923 52.7977 65.9923 52.5198 65.9923Z" fill="white"/>
<path d="M50.7819 9.14904C50.7125 9.14904 50.643 9.14904 50.5735 9.14904L2.91663 6.23761C1.17986 6.09897 -0.0706136 4.64326 -0.00114288 2.91027C0.137798 1.17728 1.59668 -0.0704742 3.33345 -0.0011546L50.9903 2.91027C52.7271 3.04891 54.047 4.50462 53.9081 6.23761C53.8386 7.90128 52.4492 9.14904 50.7819 9.14904Z" fill="white"/>
<path d="M113.307 88.0359H45.6422C44.5307 88.0359 43.4887 87.4814 42.9329 86.5109C42.3771 85.5404 42.3771 84.362 42.9329 83.3915L50.1578 70.4981C50.7136 69.5276 51.7557 68.9037 52.8672 68.9037H129.841C131.578 68.9037 132.967 70.2901 132.967 72.0231C132.967 73.7561 131.578 75.1425 129.841 75.1425H54.7429L50.9915 81.7972H113.307C115.043 81.7972 116.433 83.1836 116.433 84.9166C116.433 86.6495 115.043 88.0359 113.307 88.0359Z" fill="white"/>
<path d="M108.096 108C103.233 108 99.2042 104.049 99.2042 99.1271C99.2042 94.2054 103.164 90.2542 108.096 90.2542C113.029 90.2542 116.989 94.2054 116.989 99.1271C116.989 104.049 113.029 108 108.096 108ZM108.096 96.5623C106.638 96.5623 105.457 97.7407 105.457 99.1964C105.457 100.652 106.638 101.831 108.096 101.831C109.555 101.831 110.736 100.652 110.736 99.1964C110.736 97.7407 109.555 96.5623 108.096 96.5623Z" fill="white"/>
<path d="M58.8417 108C53.9787 108 49.9494 104.049 49.9494 99.1271C49.9494 94.2054 53.9093 90.2542 58.8417 90.2542C63.7741 90.2542 67.7339 94.2054 67.7339 99.1271C67.7339 104.049 63.7046 108 58.8417 108ZM58.8417 96.5623C57.3828 96.5623 56.2018 97.7407 56.2018 99.1964C56.2018 100.652 57.3828 101.831 58.8417 101.831C60.3006 101.831 61.4816 100.652 61.4816 99.1964C61.4816 97.7407 60.2311 96.5623 58.8417 96.5623Z" fill="white"/>
</svg>
