<svg width="251" height="206" viewBox="0 0 251 206" fill="none" xmlns="http://www.w3.org/2000/svg">
<path d="M28.8433 41.0004C19.175 53.9978 12.9583 73.0953 17.6729 89.0906C25.7288 116.428 59.9143 118.488 83.3279 121.651C99.4643 123.834 115.509 136.519 129.309 144.391C147.702 154.887 177.289 171.446 198.502 160.692C216.085 151.784 225.539 130.235 230.934 112.357C239.388 84.3637 240.203 50.5951 221.799 26.2067C196.748 -6.89971 152.925 -1.38197 116.514 4.28291C92.1441 8.07789 68.4546 11.7748 46.7882 24.6924C39.793 28.8963 33.6951 34.4379 28.8433 41.0004Z" fill="#F26627"/>
<path d="M0.604736 197.189C0.604736 199.372 56.5853 201.144 125.674 201.144C194.762 201.144 250.742 199.372 250.742 197.189C250.742 195.007 194.762 193.235 125.704 193.235C56.6466 193.235 0.604736 195.007 0.604736 197.189Z" fill="#F26627"/>
<path opacity="0.6" d="M0.604736 197.189C0.604736 199.372 56.5853 201.144 125.674 201.144C194.762 201.144 250.742 199.372 250.742 197.189C250.742 195.007 194.762 193.235 125.704 193.235C56.6466 193.235 0.604736 195.007 0.604736 197.189Z" fill="white"/>
<path d="M139.787 1.3156H28.7268V142.19H139.787V1.3156Z" fill="white" stroke="#263238" stroke-width="0.75" stroke-linecap="round" stroke-linejoin="round"/>
<path d="M139.787 1.3156H28.7268V9.72096H139.787V1.3156Z" fill="#263238" stroke="#263238" stroke-width="0.75" stroke-linecap="round" stroke-linejoin="round"/>
<path d="M50.6629 99.5682H31.8903V139.412H50.6629V99.5682Z" fill="#F26627"/>
<path opacity="0.6" d="M50.6629 99.5682H31.8903V139.412H50.6629V99.5682Z" fill="white"/>
<path d="M71.1337 99.5682H52.3611V139.412H71.1337V99.5682Z" fill="#F26627"/>
<path opacity="0.6" d="M71.1337 99.5682H52.3611V139.412H71.1337V99.5682Z" fill="white"/>
<path d="M92.8859 99.5682H74.1133V139.412H92.8859V99.5682Z" fill="#F26627"/>
<path opacity="0.6" d="M92.8859 99.5682H74.1133V139.412H92.8859V99.5682Z" fill="white"/>
<path d="M114.632 99.5682H95.8593V139.412H114.632V99.5682Z" fill="#F26627"/>
<path opacity="0.6" d="M114.632 99.5682H95.8593V139.412H114.632V99.5682Z" fill="white"/>
<path d="M136.911 99.5682H118.139V139.412H136.911V99.5682Z" fill="white" stroke="#263238" stroke-width="0.75" stroke-linecap="round" stroke-linejoin="round"/>
<path d="M136.611 4.6385H31.8964V14.2946H136.611V4.6385Z" fill="#F26627"/>
<path opacity="0.6" d="M136.611 4.6385H31.8964V14.2946H136.611V4.6385Z" fill="white"/>
<path d="M135.14 6.51453H33.7786V10.7877H135.14V6.51453Z" fill="white"/>
<path d="M135.133 6.51453H123.656V10.7877H135.133V6.51453Z" fill="#263238" stroke="#263238" stroke-width="0.75" stroke-linecap="round" stroke-linejoin="round"/>
<path d="M78.503 22.9513H57.0451C56.8256 22.9513 56.6151 22.8641 56.4599 22.7088C56.3047 22.5536 56.2175 22.3431 56.2175 22.1236C56.2175 21.9041 56.3047 21.6936 56.4599 21.5383C56.6151 21.3831 56.8256 21.2959 57.0451 21.2959H78.503C78.7225 21.2959 78.933 21.3831 79.0883 21.5383C79.2435 21.6936 79.3307 21.9041 79.3307 22.1236C79.3307 22.3431 79.2435 22.5536 79.0883 22.7088C78.933 22.8641 78.7225 22.9513 78.503 22.9513Z" fill="#263238"/>
<path d="M78.503 28.7204H57.0451C56.9308 28.7302 56.8157 28.7162 56.7072 28.6793C56.5986 28.6423 56.4989 28.5832 56.4144 28.5057C56.3299 28.4281 56.2624 28.3339 56.2162 28.2289C56.1701 28.1239 56.1462 28.0105 56.1462 27.8958C56.1462 27.7811 56.1701 27.6676 56.2162 27.5627C56.2624 27.4577 56.3299 27.3634 56.4144 27.2859C56.4989 27.2084 56.5986 27.1492 56.7072 27.1123C56.8157 27.0753 56.9308 27.0613 57.0451 27.0712H78.503C78.7094 27.089 78.9016 27.1836 79.0417 27.3363C79.1817 27.4889 79.2594 27.6886 79.2594 27.8958C79.2594 28.103 79.1817 28.3026 79.0417 28.4553C78.9016 28.608 78.7094 28.7026 78.503 28.7204Z" fill="#263238"/>
<path d="M78.503 34.4956H57.0451C56.8256 34.4956 56.6151 34.4084 56.4599 34.2532C56.3047 34.098 56.2175 33.8874 56.2175 33.6679C56.2175 33.4484 56.3047 33.2379 56.4599 33.0827C56.6151 32.9275 56.8256 32.8403 57.0451 32.8403H78.503C78.7225 32.8403 78.933 32.9275 79.0883 33.0827C79.2435 33.2379 79.3307 33.4484 79.3307 33.6679C79.3307 33.8874 79.2435 34.098 79.0883 34.2532C78.933 34.4084 78.7225 34.4956 78.503 34.4956Z" fill="#263238"/>
<path d="M78.503 40.2647H33.9687C33.7622 40.2469 33.57 40.1523 33.4299 39.9996C33.2899 39.847 33.2122 39.6473 33.2122 39.4401C33.2122 39.2329 33.2899 39.0333 33.4299 38.8806C33.57 38.7279 33.7622 38.6333 33.9687 38.6155H78.503C78.7094 38.6333 78.9016 38.7279 79.0417 38.8806C79.1817 39.0333 79.2594 39.2329 79.2594 39.4401C79.2594 39.6473 79.1817 39.847 79.0417 39.9996C78.9016 40.1523 78.7094 40.2469 78.503 40.2647Z" fill="#263238"/>
<path d="M78.503 46.0399H33.9687C33.7492 46.0399 33.5387 45.9527 33.3835 45.7975C33.2282 45.6423 33.1411 45.4318 33.1411 45.2123C33.1411 44.9928 33.2282 44.7823 33.3835 44.627C33.5387 44.4718 33.7492 44.3846 33.9687 44.3846H78.503C78.7225 44.3846 78.933 44.4718 79.0883 44.627C79.2435 44.7823 79.3307 44.9928 79.3307 45.2123C79.3307 45.4318 79.2435 45.6423 79.0883 45.7975C78.933 45.9527 78.7225 46.0399 78.503 46.0399Z" fill="#263238"/>
<path d="M78.503 51.8152H33.9687C33.7492 51.8152 33.5387 51.728 33.3835 51.5728C33.2282 51.4175 33.1411 51.207 33.1411 50.9875C33.1411 50.768 33.2282 50.5575 33.3835 50.4023C33.5387 50.2471 33.7492 50.1599 33.9687 50.1599H78.503C78.7225 50.1599 78.933 50.2471 79.0883 50.4023C79.2435 50.5575 79.3307 50.768 79.3307 50.9875C79.3307 51.207 79.2435 51.4175 79.0883 51.5728C78.933 51.728 78.7225 51.8152 78.503 51.8152Z" fill="#263238"/>
<path d="M78.503 57.5843H33.9687C33.7622 57.5665 33.57 57.4719 33.4299 57.3192C33.2899 57.1665 33.2122 56.9669 33.2122 56.7597C33.2122 56.5525 33.2899 56.3528 33.4299 56.2002C33.57 56.0475 33.7622 55.9529 33.9687 55.9351H78.503C78.7094 55.9529 78.9016 56.0475 79.0417 56.2002C79.1817 56.3528 79.2594 56.5525 79.2594 56.7597C79.2594 56.9669 79.1817 57.1665 79.0417 57.3192C78.9016 57.4719 78.7094 57.5665 78.503 57.5843Z" fill="#263238"/>
<path d="M78.503 62.7158H33.9687C33.7622 62.698 33.57 62.6034 33.4299 62.4507C33.2899 62.298 33.2122 62.0984 33.2122 61.8912C33.2122 61.684 33.2899 61.4843 33.4299 61.3317C33.57 61.179 33.7622 61.0844 33.9687 61.0666H78.503C78.7094 61.0844 78.9016 61.179 79.0417 61.3317C79.1817 61.4843 79.2594 61.684 79.2594 61.8912C79.2594 62.0984 79.1817 62.298 79.0417 62.4507C78.9016 62.6034 78.7094 62.698 78.503 62.7158Z" fill="#263238"/>
<path d="M78.503 68.5094H33.9687C33.7492 68.5094 33.5387 68.4222 33.3835 68.267C33.2282 68.1118 33.1411 67.9013 33.1411 67.6818C33.1411 67.4622 33.2282 67.2517 33.3835 67.0965C33.5387 66.9413 33.7492 66.8541 33.9687 66.8541H78.503C78.7225 66.8541 78.933 66.9413 79.0883 67.0965C79.2435 67.2517 79.3307 67.4622 79.3307 67.6818C79.3307 67.9013 79.2435 68.1118 79.0883 68.267C78.933 68.4222 78.7225 68.5094 78.503 68.5094Z" fill="#263238"/>
<path d="M78.503 74.2601H33.9687C33.7622 74.2423 33.57 74.1477 33.4299 73.995C33.2899 73.8424 33.2122 73.6427 33.2122 73.4355C33.2122 73.2283 33.2899 73.0287 33.4299 72.876C33.57 72.7233 33.7622 72.6287 33.9687 72.6109H78.503C78.7094 72.6287 78.9016 72.7233 79.0417 72.876C79.1817 73.0287 79.2594 73.2283 79.2594 73.4355C79.2594 73.6427 79.1817 73.8424 79.0417 73.995C78.9016 74.1477 78.7094 74.2423 78.503 74.2601Z" fill="#263238"/>
<path d="M78.503 80.0354H33.9687C33.7492 80.0354 33.5387 79.9481 33.3835 79.7929C33.2282 79.6377 33.1411 79.4272 33.1411 79.2077C33.1411 78.9882 33.2282 78.7777 33.3835 78.6224C33.5387 78.4672 33.7492 78.38 33.9687 78.38H78.503C78.7225 78.38 78.933 78.4672 79.0883 78.6224C79.2435 78.7777 79.3307 78.9882 79.3307 79.2077C79.3307 79.4272 79.2435 79.6377 79.0883 79.7929C78.933 79.9481 78.7225 80.0354 78.503 80.0354Z" fill="#263238"/>
<path d="M78.503 85.8045H33.9687C33.7622 85.7867 33.57 85.6921 33.4299 85.5394C33.2899 85.3867 33.2122 85.1871 33.2122 84.9799C33.2122 84.7727 33.2899 84.573 33.4299 84.4203C33.57 84.2677 33.7622 84.1731 33.9687 84.1553H78.503C78.7094 84.1731 78.9016 84.2677 79.0417 84.4203C79.1817 84.573 79.2594 84.7727 79.2594 84.9799C79.2594 85.1871 79.1817 85.3867 79.0417 85.5394C78.9016 85.6921 78.7094 85.7867 78.503 85.8045Z" fill="#263238"/>
<path d="M78.503 91.5797H33.9687C33.7622 91.5619 33.57 91.4673 33.4299 91.3146C33.2899 91.162 33.2122 90.9623 33.2122 90.7551C33.2122 90.5479 33.2899 90.3483 33.4299 90.1956C33.57 90.0429 33.7622 89.9483 33.9687 89.9305H78.503C78.7094 89.9483 78.9016 90.0429 79.0417 90.1956C79.1817 90.3483 79.2594 90.5479 79.2594 90.7551C79.2594 90.9623 79.1817 91.162 79.0417 91.3146C78.9016 91.4673 78.7094 91.5619 78.503 91.5797Z" fill="#263238"/>
<path d="M135.826 22.9513H91.3103C91.0908 22.9513 90.8802 22.8641 90.725 22.7088C90.5698 22.5536 90.4826 22.3431 90.4826 22.1236C90.4826 21.9041 90.5698 21.6936 90.725 21.5383C90.8802 21.3831 91.0908 21.2959 91.3103 21.2959H135.826C136.046 21.2959 136.256 21.3831 136.411 21.5383C136.567 21.6936 136.654 21.9041 136.654 22.1236C136.654 22.3431 136.567 22.5536 136.411 22.7088C136.256 22.8641 136.046 22.9513 135.826 22.9513Z" fill="#263238"/>
<path d="M135.826 28.7204H91.3103C91.196 28.7302 91.0809 28.7162 90.9724 28.6793C90.8638 28.6423 90.7641 28.5832 90.6796 28.5057C90.5951 28.4281 90.5276 28.3339 90.4814 28.2289C90.4353 28.1239 90.4114 28.0105 90.4114 27.8958C90.4114 27.7811 90.4353 27.6676 90.4814 27.5627C90.5276 27.4577 90.5951 27.3634 90.6796 27.2859C90.7641 27.2084 90.8638 27.1492 90.9724 27.1123C91.0809 27.0753 91.196 27.0613 91.3103 27.0712H135.826C135.94 27.0613 136.056 27.0753 136.164 27.1123C136.273 27.1492 136.372 27.2084 136.457 27.2859C136.541 27.3634 136.609 27.4577 136.655 27.5627C136.701 27.6676 136.725 27.7811 136.725 27.8958C136.725 28.0105 136.701 28.1239 136.655 28.2289C136.609 28.3339 136.541 28.4281 136.457 28.5057C136.372 28.5832 136.273 28.6423 136.164 28.6793C136.056 28.7162 135.94 28.7302 135.826 28.7204Z" fill="#263238"/>
<path d="M135.826 34.4956H91.3103C91.0908 34.4956 90.8802 34.4084 90.725 34.2532C90.5698 34.098 90.4826 33.8874 90.4826 33.6679C90.4826 33.4484 90.5698 33.2379 90.725 33.0827C90.8802 32.9275 91.0908 32.8403 91.3103 32.8403H135.826C136.046 32.8403 136.256 32.9275 136.411 33.0827C136.567 33.2379 136.654 33.4484 136.654 33.6679C136.654 33.8874 136.567 34.098 136.411 34.2532C136.256 34.4084 136.046 34.4956 135.826 34.4956Z" fill="#263238"/>
<path d="M135.826 40.2647H91.3103C91.196 40.2746 91.0809 40.2606 90.9724 40.2236C90.8638 40.1867 90.7641 40.1275 90.6796 40.05C90.5951 39.9725 90.5276 39.8782 90.4814 39.7732C90.4353 39.6682 90.4114 39.5548 90.4114 39.4401C90.4114 39.3254 90.4353 39.212 90.4814 39.107C90.5276 39.002 90.5951 38.9078 90.6796 38.8302C90.7641 38.7527 90.8638 38.6936 90.9724 38.6566C91.0809 38.6196 91.196 38.6057 91.3103 38.6155H135.826C135.94 38.6057 136.056 38.6196 136.164 38.6566C136.273 38.6936 136.372 38.7527 136.457 38.8302C136.541 38.9078 136.609 39.002 136.655 39.107C136.701 39.212 136.725 39.3254 136.725 39.4401C136.725 39.5548 136.701 39.6682 136.655 39.7732C136.609 39.8782 136.541 39.9725 136.457 40.05C136.372 40.1275 136.273 40.1867 136.164 40.2236C136.056 40.2606 135.94 40.2746 135.826 40.2647Z" fill="#263238"/>
<path d="M135.826 46.0399H91.3103C91.0908 46.0399 90.8802 45.9527 90.725 45.7975C90.5698 45.6423 90.4826 45.4318 90.4826 45.2123C90.4826 44.9928 90.5698 44.7823 90.725 44.627C90.8802 44.4718 91.0908 44.3846 91.3103 44.3846H135.826C136.046 44.3846 136.256 44.4718 136.411 44.627C136.567 44.7823 136.654 44.9928 136.654 45.2123C136.654 45.4318 136.567 45.6423 136.411 45.7975C136.256 45.9527 136.046 46.0399 135.826 46.0399Z" fill="#263238"/>
<path d="M135.826 51.8152H91.3103C91.2016 51.8152 91.094 51.7938 90.9935 51.7522C90.8931 51.7106 90.8019 51.6496 90.725 51.5728C90.6482 51.4959 90.5872 51.4047 90.5456 51.3043C90.504 51.2038 90.4826 51.0962 90.4826 50.9875C90.4826 50.8788 90.504 50.7712 90.5456 50.6708C90.5872 50.5704 90.6482 50.4791 90.725 50.4023C90.8019 50.3254 90.8931 50.2645 90.9935 50.2229C91.094 50.1813 91.2016 50.1599 91.3103 50.1599H135.826C135.935 50.1599 136.042 50.1813 136.143 50.2229C136.243 50.2645 136.335 50.3254 136.411 50.4023C136.488 50.4791 136.549 50.5704 136.591 50.6708C136.632 50.7712 136.654 50.8788 136.654 50.9875C136.654 51.0962 136.632 51.2038 136.591 51.3043C136.549 51.4047 136.488 51.4959 136.411 51.5728C136.335 51.6496 136.243 51.7106 136.143 51.7522C136.042 51.7938 135.935 51.8152 135.826 51.8152Z" fill="#263238"/>
<path d="M135.826 57.5843H91.3103C91.196 57.5941 91.0809 57.5802 90.9724 57.5432C90.8638 57.5062 90.7641 57.4471 90.6796 57.3696C90.5951 57.2921 90.5276 57.1978 90.4814 57.0928C90.4353 56.9878 90.4114 56.8744 90.4114 56.7597C90.4114 56.645 90.4353 56.5316 90.4814 56.4266C90.5276 56.3216 90.5951 56.2273 90.6796 56.1498C90.7641 56.0723 90.8638 56.0132 90.9724 55.9762C91.0809 55.9392 91.196 55.9252 91.3103 55.9351H135.826C135.94 55.9252 136.056 55.9392 136.164 55.9762C136.273 56.0132 136.372 56.0723 136.457 56.1498C136.541 56.2273 136.609 56.3216 136.655 56.4266C136.701 56.5316 136.725 56.645 136.725 56.7597C136.725 56.8744 136.701 56.9878 136.655 57.0928C136.609 57.1978 136.541 57.2921 136.457 57.3696C136.372 57.4471 136.273 57.5062 136.164 57.5432C136.056 57.5802 135.94 57.5941 135.826 57.5843Z" fill="#263238"/>
<path d="M136.629 61.4651H91.2612V93.1063H136.629V61.4651Z" fill="#F26627"/>
<path d="M52 19H33V35H52V19Z" fill="#F26627"/>
<path opacity="0.6" d="M136.629 61.4651H91.2612V93.1063H136.629V61.4651Z" fill="white"/>
<path d="M152.484 17.8688H106.245V141.902H152.484V17.8688Z" fill="#F26627"/>
<path opacity="0.4" d="M152.484 17.8688H106.245V141.902H152.484V17.8688Z" fill="white"/>
<path d="M220.763 13.2278H109.703V154.102H220.763V13.2278Z" fill="white" stroke="#263238" stroke-width="0.75" stroke-linecap="round" stroke-linejoin="round"/>
<path d="M220.763 13.2278H109.703V21.6331H220.763V13.2278Z" fill="#263238" stroke="#263238" stroke-width="0.75" stroke-linecap="round" stroke-linejoin="round"/>
<path d="M186.111 33.1775H147.113V106.079H186.111V33.1775Z" fill="#F26627"/>
<path opacity="0.6" d="M186.111 33.1775H147.113V106.079H186.111V33.1775Z" fill="white"/>
<path d="M217.593 111.474H112.878V151.318H217.593V111.474Z" fill="#F26627"/>
<path opacity="0.6" d="M217.593 111.474H112.878V151.318H217.593V111.474Z" fill="white"/>
<path d="M217.593 16.5507H112.878V26.2067H217.593V16.5507Z" fill="#F26627"/>
<path opacity="0.6" d="M217.593 16.5507H112.878V26.2067H217.593V16.5507Z" fill="white"/>
<path d="M216.122 18.4267H114.761V22.6999H216.122V18.4267Z" fill="white"/>
<path d="M216.115 18.4267H204.639V22.6999H216.115V18.4267Z" fill="#263238" stroke="#263238" stroke-width="0.75" stroke-linecap="round" stroke-linejoin="round"/>
<path d="M140.559 34.8573H113.835C113.721 34.8672 113.606 34.8532 113.497 34.8162C113.388 34.7793 113.289 34.7201 113.204 34.6426C113.12 34.5651 113.052 34.4708 113.006 34.3658C112.96 34.2609 112.936 34.1474 112.936 34.0327C112.936 33.918 112.96 33.8046 113.006 33.6996C113.052 33.5946 113.12 33.5004 113.204 33.4228C113.289 33.3453 113.388 33.2862 113.497 33.2492C113.606 33.2123 113.721 33.1983 113.835 33.2081H140.559C140.673 33.1983 140.789 33.2123 140.897 33.2492C141.006 33.2862 141.105 33.3453 141.19 33.4228C141.274 33.5004 141.342 33.5946 141.388 33.6996C141.434 33.8046 141.458 33.918 141.458 34.0327C141.458 34.1474 141.434 34.2609 141.388 34.3658C141.342 34.4708 141.274 34.5651 141.19 34.6426C141.105 34.7201 141.006 34.7793 140.897 34.8162C140.789 34.8532 140.673 34.8672 140.559 34.8573Z" fill="#263238"/>
<path d="M140.559 40.6326H113.835C113.615 40.6326 113.405 40.5454 113.25 40.3901C113.094 40.2349 113.007 40.0244 113.007 39.8049C113.007 39.5854 113.094 39.3749 113.25 39.2196C113.405 39.0644 113.615 38.9772 113.835 38.9772H140.559C140.779 38.9772 140.989 39.0644 141.144 39.2196C141.3 39.3749 141.387 39.5854 141.387 39.8049C141.387 40.0244 141.3 40.2349 141.144 40.3901C140.989 40.5454 140.779 40.6326 140.559 40.6326Z" fill="#263238"/>
<path d="M140.559 46.4016H113.835C113.721 46.4115 113.606 46.3975 113.497 46.3606C113.388 46.3236 113.289 46.2645 113.204 46.1869C113.12 46.1094 113.052 46.0152 113.006 45.9102C112.96 45.8052 112.936 45.6917 112.936 45.5771C112.936 45.4624 112.96 45.3489 113.006 45.2439C113.052 45.1389 113.12 45.0447 113.204 44.9672C113.289 44.8896 113.388 44.8305 113.497 44.7936C113.606 44.7566 113.721 44.7426 113.835 44.7525H140.559C140.673 44.7426 140.789 44.7566 140.897 44.7936C141.006 44.8305 141.105 44.8896 141.19 44.9672C141.274 45.0447 141.342 45.1389 141.388 45.2439C141.434 45.3489 141.458 45.4624 141.458 45.5771C141.458 45.6917 141.434 45.8052 141.388 45.9102C141.342 46.0152 141.274 46.1094 141.19 46.1869C141.105 46.2645 141.006 46.3236 140.897 46.3606C140.789 46.3975 140.673 46.4115 140.559 46.4016Z" fill="#263238"/>
<path d="M140.559 52.1769H113.835C113.726 52.1769 113.619 52.1555 113.518 52.1139C113.418 52.0723 113.327 52.0113 113.25 51.9345C113.173 51.8576 113.112 51.7664 113.07 51.666C113.029 51.5656 113.007 51.4579 113.007 51.3492C113.007 51.2405 113.029 51.1329 113.07 51.0325C113.112 50.9321 113.173 50.8408 113.25 50.764C113.327 50.6871 113.418 50.6262 113.518 50.5846C113.619 50.543 113.726 50.5216 113.835 50.5216H140.559C140.779 50.5216 140.989 50.6088 141.144 50.764C141.3 50.9192 141.387 51.1297 141.387 51.3492C141.387 51.5687 141.3 51.7793 141.144 51.9345C140.989 52.0897 140.779 52.1769 140.559 52.1769Z" fill="#263238"/>
<path d="M140.559 57.946H113.835C113.721 57.9559 113.606 57.9419 113.497 57.9049C113.388 57.8679 113.289 57.8088 113.204 57.7313C113.12 57.6538 113.052 57.5595 113.006 57.4545C112.96 57.3495 112.936 57.2361 112.936 57.1214C112.936 57.0067 112.96 56.8933 113.006 56.7883C113.052 56.6833 113.12 56.589 113.204 56.5115C113.289 56.434 113.388 56.3749 113.497 56.3379C113.606 56.3009 113.721 56.287 113.835 56.2968H140.559C140.673 56.287 140.789 56.3009 140.897 56.3379C141.006 56.3749 141.105 56.434 141.19 56.5115C141.274 56.589 141.342 56.6833 141.388 56.7883C141.434 56.8933 141.458 57.0067 141.458 57.1214C141.458 57.2361 141.434 57.3495 141.388 57.4545C141.342 57.5595 141.274 57.6538 141.19 57.7313C141.105 57.8088 141.006 57.8679 140.897 57.9049C140.789 57.9419 140.673 57.9559 140.559 57.946Z" fill="#263238"/>
<path d="M140.559 63.7212H113.835C113.721 63.7311 113.606 63.7171 113.497 63.6801C113.388 63.6432 113.289 63.5841 113.204 63.5065C113.12 63.429 113.052 63.3348 113.006 63.2298C112.96 63.1248 112.936 63.0113 112.936 62.8966C112.936 62.782 112.96 62.6685 113.006 62.5635C113.052 62.4585 113.12 62.3643 113.204 62.2868C113.289 62.2092 113.388 62.1501 113.497 62.1131C113.606 62.0762 113.721 62.0622 113.835 62.0721H140.559C140.673 62.0622 140.789 62.0762 140.897 62.1131C141.006 62.1501 141.105 62.2092 141.19 62.2868C141.274 62.3643 141.342 62.4585 141.388 62.5635C141.434 62.6685 141.458 62.782 141.458 62.8966C141.458 63.0113 141.434 63.1248 141.388 63.2298C141.342 63.3348 141.274 63.429 141.19 63.5065C141.105 63.5841 141.006 63.6432 140.897 63.6801C140.789 63.7171 140.673 63.7311 140.559 63.7212Z" fill="#263238"/>
<path d="M140.559 69.4965H113.835C113.726 69.4965 113.619 69.4751 113.518 69.4335C113.418 69.3919 113.327 69.3309 113.25 69.2541C113.173 69.1772 113.112 69.086 113.07 68.9855C113.029 68.8851 113.007 68.7775 113.007 68.6688C113.007 68.5601 113.029 68.4525 113.07 68.3521C113.112 68.2517 113.173 68.1604 113.25 68.0836C113.327 68.0067 113.418 67.9457 113.518 67.9042C113.619 67.8626 113.726 67.8412 113.835 67.8412H140.559C140.779 67.8412 140.989 67.9284 141.144 68.0836C141.3 68.2388 141.387 68.4493 141.387 68.6688C141.387 68.8883 141.3 69.0988 141.144 69.2541C140.989 69.4093 140.779 69.4965 140.559 69.4965Z" fill="#263238"/>
<path d="M140.559 74.6402H113.835C113.615 74.6402 113.405 74.553 113.25 74.3978C113.094 74.2426 113.007 74.0321 113.007 73.8126C113.007 73.5931 113.094 73.3826 113.25 73.2273C113.405 73.0721 113.615 72.9849 113.835 72.9849H140.559C140.779 72.9849 140.989 73.0721 141.144 73.2273C141.3 73.3826 141.387 73.5931 141.387 73.8126C141.387 74.0321 141.3 74.2426 141.144 74.3978C140.989 74.553 140.779 74.6402 140.559 74.6402Z" fill="#263238"/>
<path d="M140.559 80.3971H113.835C113.721 80.4069 113.606 80.3929 113.497 80.356C113.388 80.319 113.289 80.2599 113.204 80.1824C113.12 80.1048 113.052 80.0106 113.006 79.9056C112.96 79.8006 112.936 79.6872 112.936 79.5725C112.936 79.4578 112.96 79.3443 113.006 79.2394C113.052 79.1344 113.12 79.0401 113.204 78.9626C113.289 78.8851 113.388 78.8259 113.497 78.789C113.606 78.752 113.721 78.738 113.835 78.7479H140.559C140.673 78.738 140.789 78.752 140.897 78.789C141.006 78.8259 141.105 78.8851 141.19 78.9626C141.274 79.0401 141.342 79.1344 141.388 79.2394C141.434 79.3443 141.458 79.4578 141.458 79.5725C141.458 79.6872 141.434 79.8006 141.388 79.9056C141.342 80.0106 141.274 80.1048 141.19 80.1824C141.105 80.2599 141.006 80.319 140.897 80.356C140.789 80.3929 140.673 80.4069 140.559 80.3971Z" fill="#263238"/>
<path d="M140.559 86.1723H113.835C113.615 86.1723 113.405 86.0851 113.25 85.9299C113.094 85.7747 113.007 85.5642 113.007 85.3447C113.007 85.1252 113.094 84.9146 113.25 84.7594C113.405 84.6042 113.615 84.517 113.835 84.517H140.559C140.779 84.517 140.989 84.6042 141.144 84.7594C141.3 84.9146 141.387 85.1252 141.387 85.3447C141.387 85.5642 141.3 85.7747 141.144 85.9299C140.989 86.0851 140.779 86.1723 140.559 86.1723Z" fill="#263238"/>
<path d="M140.559 91.9414H113.835C113.721 91.9513 113.606 91.9373 113.497 91.9003C113.388 91.8634 113.289 91.8042 113.204 91.7267C113.12 91.6492 113.052 91.5549 113.006 91.4499C112.96 91.345 112.936 91.2315 112.936 91.1168C112.936 91.0021 112.96 90.8887 113.006 90.7837C113.052 90.6787 113.12 90.5845 113.204 90.5069C113.289 90.4294 113.388 90.3703 113.497 90.3333C113.606 90.2964 113.721 90.2824 113.835 90.2922H140.559C140.673 90.2824 140.789 90.2964 140.897 90.3333C141.006 90.3703 141.105 90.4294 141.19 90.5069C141.274 90.5845 141.342 90.6787 141.388 90.7837C141.434 90.8887 141.458 91.0021 141.458 91.1168C141.458 91.2315 141.434 91.345 141.388 91.4499C141.342 91.5549 141.274 91.6492 141.19 91.7267C141.105 91.8042 141.006 91.8634 140.897 91.9003C140.789 91.9373 140.673 91.9513 140.559 91.9414Z" fill="#263238"/>
<path d="M140.559 97.7167H113.835C113.615 97.7167 113.405 97.6295 113.25 97.4742C113.094 97.319 113.007 97.1085 113.007 96.889C113.007 96.6695 113.094 96.459 113.25 96.3038C113.405 96.1485 113.615 96.0613 113.835 96.0613H140.559C140.779 96.0613 140.989 96.1485 141.144 96.3038C141.3 96.459 141.387 96.6695 141.387 96.889C141.387 97.1085 141.3 97.319 141.144 97.4742C140.989 97.6295 140.779 97.7167 140.559 97.7167Z" fill="#263238"/>
<path d="M140.559 103.486H113.835C113.721 103.496 113.606 103.482 113.497 103.445C113.388 103.408 113.289 103.349 113.204 103.271C113.12 103.194 113.052 103.099 113.006 102.994C112.96 102.889 112.936 102.776 112.936 102.661C112.936 102.546 112.96 102.433 113.006 102.328C113.052 102.223 113.12 102.129 113.204 102.051C113.289 101.974 113.388 101.915 113.497 101.878C113.606 101.841 113.721 101.827 113.835 101.837H140.559C140.673 101.827 140.789 101.841 140.897 101.878C141.006 101.915 141.105 101.974 141.19 102.051C141.274 102.129 141.342 102.223 141.388 102.328C141.434 102.433 141.458 102.546 141.458 102.661C141.458 102.776 141.434 102.889 141.388 102.994C141.342 103.099 141.274 103.194 141.19 103.271C141.105 103.349 141.006 103.408 140.897 103.445C140.789 103.482 140.673 103.496 140.559 103.486Z" fill="#263238"/>
<path d="M140.559 109.261H113.835C113.721 109.271 113.606 109.257 113.497 109.22C113.388 109.183 113.289 109.124 113.204 109.046C113.12 108.969 113.052 108.875 113.006 108.77C112.96 108.665 112.936 108.551 112.936 108.436C112.936 108.322 112.96 108.208 113.006 108.103C113.052 107.998 113.12 107.904 113.204 107.827C113.289 107.749 113.388 107.69 113.497 107.653C113.606 107.616 113.721 107.602 113.835 107.612H140.559C140.673 107.602 140.789 107.616 140.897 107.653C141.006 107.69 141.105 107.749 141.19 107.827C141.274 107.904 141.342 107.998 141.388 108.103C141.434 108.208 141.458 108.322 141.458 108.436C141.458 108.551 141.434 108.665 141.388 108.77C141.342 108.875 141.274 108.969 141.19 109.046C141.105 109.124 141.006 109.183 140.897 109.22C140.789 109.257 140.673 109.271 140.559 109.261Z" fill="#263238"/>
<path d="M217.391 34.8573H190.697C190.583 34.8672 190.468 34.8532 190.359 34.8162C190.251 34.7793 190.151 34.7201 190.066 34.6426C189.982 34.5651 189.914 34.4708 189.868 34.3658C189.822 34.2609 189.798 34.1474 189.798 34.0327C189.798 33.918 189.822 33.8046 189.868 33.6996C189.914 33.5946 189.982 33.5004 190.066 33.4228C190.151 33.3453 190.251 33.2862 190.359 33.2492C190.468 33.2123 190.583 33.1983 190.697 33.2081H217.421C217.536 33.1983 217.651 33.2123 217.759 33.2492C217.868 33.2862 217.967 33.3453 218.052 33.4228C218.137 33.5004 218.204 33.5946 218.25 33.6996C218.296 33.8046 218.32 33.918 218.32 34.0327C218.32 34.1474 218.296 34.2609 218.25 34.3658C218.204 34.4708 218.137 34.5651 218.052 34.6426C217.967 34.7201 217.868 34.7793 217.759 34.8162C217.651 34.8532 217.536 34.8672 217.421 34.8573H217.391Z" fill="#263238"/>
<path d="M217.391 40.6326H190.697C190.588 40.6326 190.481 40.6111 190.38 40.5695C190.28 40.528 190.189 40.467 190.112 40.3901C190.035 40.3133 189.974 40.222 189.932 40.1216C189.891 40.0212 189.869 39.9136 189.869 39.8049C189.869 39.6962 189.891 39.5886 189.932 39.4882C189.974 39.3877 190.035 39.2965 190.112 39.2196C190.189 39.1428 190.28 39.0818 190.38 39.0402C190.481 38.9986 190.588 38.9772 190.697 38.9772H217.421C217.641 38.9772 217.851 39.0644 218.007 39.2196C218.162 39.3749 218.249 39.5854 218.249 39.8049C218.249 40.0244 218.162 40.2349 218.007 40.3901C217.851 40.5454 217.641 40.6326 217.421 40.6326H217.391Z" fill="#263238"/>
<path d="M217.391 46.4016H190.697C190.583 46.4115 190.468 46.3975 190.359 46.3606C190.251 46.3236 190.151 46.2645 190.066 46.1869C189.982 46.1094 189.914 46.0152 189.868 45.9102C189.822 45.8052 189.798 45.6917 189.798 45.5771C189.798 45.4624 189.822 45.3489 189.868 45.2439C189.914 45.1389 189.982 45.0447 190.066 44.9672C190.151 44.8896 190.251 44.8305 190.359 44.7936C190.468 44.7566 190.583 44.7426 190.697 44.7525H217.421C217.536 44.7426 217.651 44.7566 217.759 44.7936C217.868 44.8305 217.967 44.8896 218.052 44.9672C218.137 45.0447 218.204 45.1389 218.25 45.2439C218.296 45.3489 218.32 45.4624 218.32 45.5771C218.32 45.6917 218.296 45.8052 218.25 45.9102C218.204 46.0152 218.137 46.1094 218.052 46.1869C217.967 46.2645 217.868 46.3236 217.759 46.3606C217.651 46.3975 217.536 46.4115 217.421 46.4016H217.391Z" fill="#263238"/>
<path d="M217.391 52.1769H190.697C190.588 52.1769 190.481 52.1555 190.38 52.1139C190.28 52.0723 190.189 52.0113 190.112 51.9345C190.035 51.8576 189.974 51.7664 189.932 51.666C189.891 51.5656 189.869 51.4579 189.869 51.3492C189.869 51.2405 189.891 51.1329 189.932 51.0325C189.974 50.9321 190.035 50.8408 190.112 50.764C190.189 50.6871 190.28 50.6262 190.38 50.5846C190.481 50.543 190.588 50.5216 190.697 50.5216H217.421C217.641 50.5216 217.851 50.6088 218.007 50.764C218.162 50.9192 218.249 51.1297 218.249 51.3492C218.249 51.5687 218.162 51.7793 218.007 51.9345C217.851 52.0897 217.641 52.1769 217.421 52.1769H217.391Z" fill="#263238"/>
<path d="M217.391 57.946H190.697C190.583 57.9559 190.468 57.9419 190.359 57.9049C190.251 57.8679 190.151 57.8088 190.066 57.7313C189.982 57.6538 189.914 57.5595 189.868 57.4545C189.822 57.3495 189.798 57.2361 189.798 57.1214C189.798 57.0067 189.822 56.8933 189.868 56.7883C189.914 56.6833 189.982 56.589 190.066 56.5115C190.151 56.434 190.251 56.3749 190.359 56.3379C190.468 56.3009 190.583 56.287 190.697 56.2968H217.421C217.536 56.287 217.651 56.3009 217.759 56.3379C217.868 56.3749 217.967 56.434 218.052 56.5115C218.137 56.589 218.204 56.6833 218.25 56.7883C218.296 56.8933 218.32 57.0067 218.32 57.1214C218.32 57.2361 218.296 57.3495 218.25 57.4545C218.204 57.5595 218.137 57.6538 218.052 57.7313C217.967 57.8088 217.868 57.8679 217.759 57.9049C217.651 57.9419 217.536 57.9559 217.421 57.946H217.391Z" fill="#263238"/>
<path d="M217.391 63.7212H190.697C190.583 63.7311 190.468 63.7171 190.359 63.6801C190.251 63.6432 190.151 63.5841 190.066 63.5065C189.982 63.429 189.914 63.3348 189.868 63.2298C189.822 63.1248 189.798 63.0113 189.798 62.8966C189.798 62.782 189.822 62.6685 189.868 62.5635C189.914 62.4585 189.982 62.3643 190.066 62.2868C190.151 62.2092 190.251 62.1501 190.359 62.1131C190.468 62.0762 190.583 62.0622 190.697 62.0721H217.421C217.536 62.0622 217.651 62.0762 217.759 62.1131C217.868 62.1501 217.967 62.2092 218.052 62.2868C218.137 62.3643 218.204 62.4585 218.25 62.5635C218.296 62.6685 218.32 62.782 218.32 62.8966C218.32 63.0113 218.296 63.1248 218.25 63.2298C218.204 63.3348 218.137 63.429 218.052 63.5065C217.967 63.5841 217.868 63.6432 217.759 63.6801C217.651 63.7171 217.536 63.7311 217.421 63.7212H217.391Z" fill="#263238"/>
<path d="M217.391 69.4965H190.697C190.588 69.4965 190.481 69.4751 190.38 69.4335C190.28 69.3919 190.189 69.3309 190.112 69.2541C190.035 69.1772 189.974 69.086 189.932 68.9855C189.891 68.8851 189.869 68.7775 189.869 68.6688C189.869 68.5601 189.891 68.4525 189.932 68.3521C189.974 68.2517 190.035 68.1604 190.112 68.0836C190.189 68.0067 190.28 67.9457 190.38 67.9042C190.481 67.8626 190.588 67.8412 190.697 67.8412H217.421C217.641 67.8412 217.851 67.9284 218.007 68.0836C218.162 68.2388 218.249 68.4493 218.249 68.6688C218.249 68.8883 218.162 69.0988 218.007 69.2541C217.851 69.4093 217.641 69.4965 217.421 69.4965H217.391Z" fill="#263238"/>
<path d="M217.611 73.3712H190.029V105.012H217.611V73.3712Z" fill="#F26627"/>
<path opacity="0.6" d="M217.611 73.3712H190.029V105.012H217.611V73.3712Z" fill="white"/>
<path d="M231.363 130.67C231.197 124.441 231.682 113.81 226.213 109.433C221.412 105.589 217.679 110.806 216.336 115.012C213.068 125.22 213.418 163.635 214.264 171.372C214.264 171.372 213.43 163.623 207.342 166.946C201.254 170.269 210.408 187.711 210.408 187.711C210.408 187.711 203.21 182.451 199.887 186.877C196.564 191.304 204.044 196.294 204.044 196.294C204.044 196.294 197.122 194.357 197.122 196.294C197.122 198.232 199.335 199.893 205.705 200.727H240.038C240.038 200.727 245.556 197.661 244.47 194.357C243.385 191.052 237.524 192.965 237.524 192.965C237.524 192.965 246.383 182.169 245.825 177.46C245.267 172.752 233.919 178.288 233.919 178.288C233.919 178.288 242.784 155.861 241.123 145.893C239.811 138.039 233.717 143.44 230.4 146.432C231.18 141.216 231.502 135.942 231.363 130.67Z" fill="#F26627"/>
<path opacity="0.1" d="M231.363 130.67C231.197 124.441 231.682 113.81 226.213 109.433C221.412 105.589 217.679 110.806 216.336 115.012C213.068 125.22 213.418 163.635 214.264 171.372C214.264 171.372 213.43 163.623 207.342 166.946C201.254 170.269 210.408 187.711 210.408 187.711C210.408 187.711 203.21 182.451 199.887 186.877C196.564 191.304 204.044 196.294 204.044 196.294C204.044 196.294 197.122 194.357 197.122 196.294C197.122 198.232 199.335 199.893 205.705 200.727H240.038C240.038 200.727 245.556 197.661 244.47 194.357C243.385 191.052 237.524 192.965 237.524 192.965C237.524 192.965 246.383 182.169 245.825 177.46C245.267 172.752 233.919 178.288 233.919 178.288C233.919 178.288 242.784 155.861 241.123 145.893C239.811 138.039 233.717 143.44 230.4 146.432C231.18 141.216 231.502 135.942 231.363 130.67Z" fill="black"/>
<path d="M220.321 199.985L222.847 124.3" stroke="#F26627" stroke-width="1.72695" stroke-linecap="round" stroke-linejoin="round"/>
<path d="M221.737 168.607L234.753 156.419" stroke="#F26627" stroke-width="1.72695" stroke-linecap="round" stroke-linejoin="round"/>
<path d="M227.831 163.065L230.596 155.316" stroke="#F26627" stroke-width="1.72695" stroke-linecap="round" stroke-linejoin="round"/>
<path d="M210.941 178.018L220.72 188.447" stroke="#F26627" stroke-width="1.72695" stroke-linecap="round" stroke-linejoin="round"/>
<path d="M237.524 184.112L220.91 192.695" stroke="#F26627" stroke-width="1.72695" stroke-linecap="round" stroke-linejoin="round"/>
<path d="M229.149 188.342L234.753 188.821" stroke="#F26627" stroke-width="1.72695" stroke-linecap="round" stroke-linejoin="round"/>
<path d="M106.453 201.021C106.453 203.302 84.7196 205.153 57.9156 205.153C31.1117 205.153 9.37177 203.314 9.37177 201.021C9.37177 198.728 31.1055 196.889 57.9156 196.889C84.7257 196.889 106.453 198.74 106.453 201.021Z" fill="#263238"/>
<path d="M33.7479 125.128C33.7479 125.128 37.5 123.227 39.1308 124.858C40.7616 126.489 40.1056 143.937 40.5961 149.479C40.8932 152.785 41.5029 156.055 42.4169 159.246C42.4169 159.246 37.034 158.271 32.9571 156.18C32.9571 156.18 29.3705 138.769 33.7479 125.128Z" fill="#325D79" stroke="#263238" stroke-width="0.75" stroke-linecap="round" stroke-linejoin="round"/>
<path d="M108.452 164.641C108.011 164.64 107.583 164.491 107.237 164.216C106.892 163.942 106.649 163.559 106.549 163.129C106.449 162.699 106.497 162.248 106.686 161.849C106.874 161.45 107.192 161.127 107.588 160.932L125.312 152.962L139.069 137.138C139.403 136.741 139.881 136.493 140.398 136.449C140.915 136.405 141.428 136.568 141.825 136.902C142.222 137.236 142.47 137.714 142.514 138.231C142.558 138.748 142.395 139.261 142.061 139.658L128.04 155.794C127.872 156 127.663 156.169 127.427 156.291L109.329 164.438C109.057 164.576 108.756 164.645 108.452 164.641Z" fill="white" stroke="#263238" stroke-width="0.75" stroke-linecap="round" stroke-linejoin="round"/>
<path d="M120.573 157.731L122.516 156.848" stroke="#263238" stroke-width="0.75" stroke-linecap="round" stroke-linejoin="round"/>
<path d="M111.609 161.808L119.291 158.314" stroke="#263238" stroke-width="0.75" stroke-linecap="round" stroke-linejoin="round"/>
<path d="M137.88 142.306L132.761 148.094" stroke="#263238" stroke-width="0.75" stroke-linecap="round" stroke-linejoin="round"/>
<path d="M131.933 148.921L130.774 150.239" stroke="#263238" stroke-width="0.75" stroke-linecap="round" stroke-linejoin="round"/>
<path d="M110.812 171.67C112.981 162.527 107.326 153.357 98.182 151.188C89.0383 149.02 79.8683 154.675 77.7002 163.819C75.5321 172.963 81.1869 182.133 90.3306 184.301C99.4744 186.469 108.644 180.814 110.812 171.67Z" fill="#F26627" stroke="#263238" stroke-width="0.747671" stroke-linecap="round" stroke-linejoin="round"/>
<path d="M51.7297 104.767C51.7297 104.767 54.182 110.518 54.697 111.64C55.212 112.762 55.7024 113.068 55.5859 113.424C55.4695 113.779 54.2188 114.19 54.2188 114.19C54.3925 115.96 54.0853 117.743 53.3298 119.352C52.1036 121.805 49.7126 123.086 49.4797 124.625C49.3424 126.105 49.3219 127.593 49.4183 129.076L45.8012 126.109C45.8012 126.109 46.8066 123.203 45.9176 121.069C45.164 119.323 43.8207 117.897 42.1227 117.041C40.0085 115.653 38.5041 113.511 37.9169 111.051C37.3835 108.2 39.0389 105.178 41.2337 103.044C43.4285 100.911 47.7569 101.328 48.2351 101.506C48.7133 101.683 47.0457 100.279 48.5294 99.9606C50.013 99.6417 50.902 101.8 50.9817 102.155C51.0614 102.511 51.5151 100.617 51.9933 101.861C52.4715 103.106 51.7297 104.767 51.7297 104.767Z" fill="white"/>
<g style="mix-blend-mode:multiply" opacity="0.5">
<path d="M47.3093 127.365C47.2879 126.954 47.2408 126.545 47.1683 126.139C46.9292 125.06 48.3945 121.7 48.8482 117.746C49.3019 113.792 46.2058 108.268 46.2058 108.268L43.9374 101.689C42.9299 101.905 41.9973 102.383 41.2337 103.075C39.0389 105.209 37.3835 108.231 37.9169 111.082C38.5041 113.542 40.0085 115.684 42.1227 117.072C43.8207 117.928 45.164 119.354 45.9176 121.1C46.8066 123.233 45.8012 126.139 45.8012 126.139L47.3093 127.365Z" fill="#F26627"/>
</g>
<path d="M51.7297 104.767C51.7297 104.767 54.182 110.518 54.697 111.64C55.212 112.762 55.7024 113.068 55.5859 113.424C55.4695 113.779 54.2188 114.19 54.2188 114.19C54.3925 115.96 54.0853 117.743 53.3298 119.352C52.1036 121.805 49.7126 123.086 49.4797 124.625C49.3424 126.105 49.3219 127.593 49.4183 129.076L45.8012 126.109C45.8012 126.109 46.8066 123.203 45.9176 121.069C45.164 119.323 43.8207 117.897 42.1227 117.041C40.0085 115.653 38.5041 113.511 37.9169 111.051C37.3835 108.2 39.0389 105.178 41.2337 103.044C43.4285 100.911 47.7569 101.328 48.2351 101.506C48.7133 101.683 47.0457 100.279 48.5294 99.9606C50.013 99.6417 50.902 101.8 50.9817 102.155C51.0614 102.511 51.5151 100.617 51.9933 101.861C52.4715 103.106 51.7297 104.767 51.7297 104.767Z" stroke="#263238" stroke-width="0.75" stroke-linecap="round" stroke-linejoin="round"/>
<path d="M51.9626 107.826C51.9626 107.826 50.8897 107.532 50.5342 108.439C50.4224 108.647 50.3594 108.878 50.3499 109.114C50.3403 109.349 50.3844 109.584 50.479 109.801" stroke="#263238" stroke-width="0.75" stroke-linecap="round" stroke-linejoin="round"/>
<path d="M53.2133 116.863C53.2133 116.863 52.1465 117.397 51.4905 116.685" stroke="#263238" stroke-width="0.75" stroke-linecap="round" stroke-linejoin="round"/>
<path d="M51.1227 111.891L46.1812 114.031" stroke="#263238" stroke-width="0.75" stroke-linecap="round" stroke-linejoin="round"/>
<path d="M44.1152 116.63C43.448 117.613 43.1365 118.794 43.2323 119.978C43.3795 122.001 43.3304 124.76 42.2943 124.514C41.2582 124.269 42.7848 121.161 42.7848 119.88C42.7235 118.903 42.4998 117.944 42.1226 117.041" stroke="#263238" stroke-width="0.75" stroke-linecap="round" stroke-linejoin="round"/>
<path d="M54.7277 110.334L53.5628 110.837" stroke="#263238" stroke-width="0.75" stroke-linecap="round" stroke-linejoin="round"/>
<path d="M52.8209 111.487C52.9742 112.008 52.9742 112.467 52.8209 112.51C52.6677 112.553 52.4224 112.167 52.2692 111.646C52.1159 111.125 52.122 110.665 52.2692 110.616C52.4163 110.567 52.6738 110.959 52.8209 111.487Z" fill="#263238"/>
<path d="M53.4401 111.486C53.8509 112.713 53.7466 113.847 53.2071 114.031C52.6676 114.215 51.8951 113.363 51.4844 112.142C51.0736 110.922 51.1778 109.776 51.7173 109.592C52.2569 109.408 53.0293 110.26 53.4401 111.486Z" stroke="#263238" stroke-width="0.75" stroke-linecap="round" stroke-linejoin="round"/>
<path d="M45.2494 116.238C45.2494 116.238 44.2746 115.061 45.1513 115.159C45.4266 115.216 45.6814 115.346 45.8887 115.536C46.0959 115.726 46.2479 115.969 46.3284 116.238" stroke="#263238" stroke-width="0.5" stroke-linecap="round" stroke-linejoin="round"/>
<path d="M72.6603 136.365L69.2209 138.799L69.7543 141.644L73.6719 140.105L72.6603 136.365Z" fill="white" stroke="#263238" stroke-width="0.75" stroke-linecap="round" stroke-linejoin="round"/>
<path d="M69.5765 138.088L71.1214 143.839C71.1214 143.839 60.7236 148.584 58.6697 150.049C56.6159 151.515 54.9912 151.116 54.9912 151.116L53.6302 144.47C53.6302 144.47 55.1077 145.182 58.2528 143.82C61.3979 142.459 69.5765 138.088 69.5765 138.088Z" fill="white" stroke="#263238" stroke-width="0.75" stroke-linecap="round" stroke-linejoin="round"/>
<path d="M74.6834 153.053C74.4744 153.032 74.2802 152.935 74.1362 152.782C73.9921 152.629 73.9078 152.43 73.8987 152.22L72.5254 129.468C72.5115 129.348 72.5224 129.226 72.5576 129.11C72.5929 128.994 72.6515 128.887 72.7301 128.794C72.8086 128.702 72.9052 128.627 73.014 128.574C73.1228 128.521 73.2414 128.49 73.3624 128.485C73.4834 128.479 73.6043 128.499 73.7174 128.542C73.8306 128.585 73.9337 128.651 74.0202 128.736C74.1067 128.821 74.1749 128.922 74.2204 129.035C74.266 129.147 74.2879 129.267 74.2849 129.388L75.6582 152.134C75.664 152.25 75.6469 152.366 75.6078 152.475C75.5686 152.584 75.5083 152.685 75.4303 152.771C75.3523 152.857 75.2581 152.927 75.1531 152.976C75.0481 153.026 74.9343 153.054 74.8183 153.06L74.6834 153.053Z" fill="#263238" stroke="#263238" stroke-width="0.75" stroke-linecap="round" stroke-linejoin="round"/>
<path d="M72.0656 135.826C71.8472 135.817 71.64 135.727 71.4842 135.573C71.3283 135.42 71.2349 135.214 71.2219 134.996C71.2089 134.778 71.2774 134.563 71.414 134.392C71.5506 134.221 71.7456 134.108 71.9614 134.072L75.4008 133.656C75.52 133.631 75.643 133.632 75.7619 133.658C75.8809 133.684 75.9932 133.734 76.0919 133.805C76.1906 133.876 76.2736 133.967 76.3355 134.071C76.3975 134.176 76.4371 134.293 76.4519 134.413C76.4668 134.534 76.4565 134.657 76.4217 134.773C76.3869 134.89 76.3284 134.998 76.2499 135.091C76.1713 135.184 76.0744 135.259 75.9652 135.313C75.856 135.367 75.7369 135.397 75.6153 135.403L72.176 135.82L72.0656 135.826Z" fill="white" stroke="#263238" stroke-width="0.75" stroke-linecap="round" stroke-linejoin="round"/>
<path d="M72.2433 137.604C72.0249 137.595 71.8178 137.505 71.6619 137.351C71.5061 137.198 71.4126 136.992 71.3996 136.774C71.3867 136.556 71.4551 136.341 71.5917 136.17C71.7283 135.999 71.9234 135.886 72.1391 135.85L75.5785 135.434C75.8107 135.408 76.0438 135.474 76.2274 135.619C76.411 135.763 76.5303 135.974 76.5594 136.206C76.5731 136.32 76.5642 136.436 76.5331 136.547C76.502 136.658 76.4493 136.762 76.3782 136.852C76.307 136.943 76.2187 137.018 76.1183 137.075C76.0179 137.131 75.9074 137.167 75.7931 137.181L72.3537 137.598L72.2433 137.604Z" fill="white" stroke="#263238" stroke-width="0.75" stroke-linecap="round" stroke-linejoin="round"/>
<path d="M72.4334 139.222C72.2182 139.221 72.0113 139.139 71.855 138.99C71.6988 138.842 71.6048 138.64 71.5923 138.425C71.5798 138.211 71.6497 137.999 71.7877 137.834C71.9258 137.669 72.1216 137.562 72.3353 137.536L75.6276 137.138C75.7386 137.123 75.8514 137.131 75.9595 137.16C76.0676 137.189 76.1688 137.239 76.2573 137.308C76.3457 137.377 76.4197 137.462 76.4749 137.559C76.5301 137.657 76.5654 137.764 76.5788 137.875C76.5922 137.987 76.5834 138.099 76.5529 138.207C76.5224 138.315 76.4708 138.415 76.4012 138.503C76.3315 138.591 76.2452 138.664 76.1471 138.718C76.049 138.772 75.9412 138.806 75.8299 138.818L72.5377 139.216L72.4334 139.222Z" fill="white" stroke="#263238" stroke-width="0.75" stroke-linecap="round" stroke-linejoin="round"/>
<path d="M72.9852 140.773C72.8156 140.757 72.6585 140.677 72.545 140.55C72.4314 140.422 72.3698 140.257 72.3721 140.087C72.3379 139.903 72.372 139.713 72.468 139.553C72.564 139.393 72.7152 139.273 72.8933 139.216L75.223 138.842C75.554 138.799 75.8361 139.1 75.8851 139.529C75.9221 139.713 75.8892 139.904 75.7929 140.065C75.6965 140.226 75.5436 140.345 75.364 140.399L73.0404 140.767L72.9852 140.773Z" fill="white" stroke="#263238" stroke-width="0.75" stroke-linecap="round" stroke-linejoin="round"/>
<path d="M71.7223 137.972C71.7121 138.139 71.641 138.297 71.5224 138.416C71.4038 138.534 71.2459 138.605 71.0785 138.615C70.8971 138.665 70.7038 138.646 70.5353 138.563C70.3669 138.479 70.2351 138.336 70.165 138.162L69.6255 135.869C69.552 135.544 69.8278 135.225 70.2386 135.151C70.4191 135.105 70.6104 135.125 70.7772 135.208C70.944 135.292 71.0749 135.433 71.146 135.605L71.6916 137.904C71.6916 137.904 71.7161 137.947 71.7223 137.972Z" fill="white" stroke="#263238" stroke-width="0.75" stroke-linecap="round" stroke-linejoin="round"/>
<path d="M44.4952 124.331C44.4952 124.331 48.7071 126.881 50.6628 130.081C52.6186 133.282 54.28 138.051 55.2303 142.239C56.1806 146.426 56.9469 157.357 57.5416 159.613C57.8294 160.811 58.2682 161.966 58.8475 163.053C55.4159 164.327 51.7716 164.93 48.1124 164.831C42.3004 164.592 41.4114 163.169 41.4114 163.169C41.4114 163.169 39.4557 150.246 39.6335 139.983C39.8113 129.72 44.4952 124.331 44.4952 124.331Z" fill="white"/>
<g style="mix-blend-mode:multiply" opacity="0.5">
<path d="M42.0123 135.948C42.0123 135.948 41.3992 136.911 41.8897 134.391C42.2866 132.629 42.9327 130.932 43.8086 129.352L46.684 132.589L48.4865 132.711L48.0083 133.551L51.4844 135.709L49.8352 133.766L49.9517 130.799L47.1683 131.657C47.1683 131.657 45.3659 128.42 44.8877 127.365C44.5689 126.642 45.6356 126.029 46.3836 125.704C45.7775 125.232 45.1472 124.792 44.4953 124.386C44.4953 124.386 39.8113 129.781 39.6336 140.038C39.4925 148.173 40.6942 157.977 41.1969 161.692L50.3931 161.183L42.0123 135.948Z" fill="#F26627"/>
</g>
<path d="M44.4952 124.331C44.4952 124.331 48.7071 126.881 50.6628 130.081C52.6186 133.282 54.28 138.051 55.2303 142.239C56.1806 146.426 56.9469 157.357 57.5416 159.613C57.8294 160.811 58.2682 161.966 58.8475 163.053C55.4159 164.327 51.7716 164.93 48.1124 164.831C42.3004 164.592 41.4114 163.169 41.4114 163.169C41.4114 163.169 39.4557 150.246 39.6335 139.983C39.8113 129.72 44.4952 124.331 44.4952 124.331Z" stroke="#263238" stroke-width="0.75" stroke-linecap="round" stroke-linejoin="round"/>
<path d="M43.2507 126.409L47.6404 131.681L49.9517 130.792L49.8352 133.76L53.3298 137.972" stroke="#263238" stroke-width="0.75" stroke-linecap="round" stroke-linejoin="round"/>
<path d="M40.5532 137.585C40.5532 137.585 41.0436 142.49 42.5089 143.655" stroke="#263238" stroke-width="0.5" stroke-linecap="round" stroke-linejoin="round"/>
<path d="M40.8475 142.876C40.8475 142.876 41.4606 144.716 42.9994 145.329" stroke="#263238" stroke-width="0.5" stroke-linecap="round" stroke-linejoin="round"/>
<path d="M53.575 140.228L51.0308 141.209L51.4231 142.288L53.7712 141.405" stroke="#263238" stroke-width="0.5" stroke-linecap="round" stroke-linejoin="round"/>
<path d="M70.7352 158.7C70.5247 158.7 70.3214 158.624 70.1618 158.487C70.0021 158.35 69.8968 158.16 69.8646 157.952L66.6888 137.328C66.6715 137.213 66.677 137.096 66.7049 136.984C66.7328 136.871 66.7826 136.765 66.8515 136.672C66.9204 136.578 67.007 136.499 67.1064 136.439C67.2057 136.38 67.3159 136.34 67.4307 136.322C67.5454 136.305 67.6624 136.311 67.775 136.339C67.8877 136.366 67.9937 136.416 68.087 136.485C68.1804 136.554 68.2593 136.641 68.3192 136.74C68.3791 136.839 68.4188 136.95 68.4361 137.064L71.6119 157.688C71.6454 157.92 71.5863 158.155 71.4474 158.343C71.3086 158.532 71.1011 158.658 70.8701 158.694L70.7352 158.7Z" fill="#263238" stroke="#263238" stroke-width="0.75" stroke-linecap="round" stroke-linejoin="round"/>
<path d="M51.7297 104.767C51.7297 104.767 52.4408 103.106 51.9688 101.861C51.4967 100.617 51.0185 102.511 50.9572 102.155C50.8959 101.8 50.013 99.6663 48.5048 99.9605C46.9967 100.255 48.6826 101.683 48.2106 101.506C47.7385 101.328 43.404 100.892 41.2092 103.044C39.0143 105.196 37.359 108.2 37.8924 111.051C38.4796 113.511 39.984 115.653 42.0981 117.041C43.2078 117.61 44.1757 118.421 44.9306 119.414C45.5677 118.902 46.1493 118.324 46.6656 117.691C46.3574 117.789 46.0304 117.814 45.7109 117.763C45.3915 117.712 45.0885 117.586 44.8263 117.397C43.8761 116.741 43.404 114.846 44.5934 113.896C45.7828 112.946 46.9292 115.104 46.9292 115.104C48.1554 115.76 47.6956 114.037 47.2235 113.264C46.7514 112.492 47.4013 111.658 47.5791 110.536C47.7569 109.414 46.218 108.991 46.3958 107.863C46.5736 106.735 51.7297 104.767 51.7297 104.767Z" fill="#263238" stroke="#263238" stroke-width="0.75" stroke-linecap="round" stroke-linejoin="round"/>
<path d="M48.8726 105.564C48.8726 105.564 46.7207 104.485 45.3474 106.177C43.9741 107.869 44.2745 110.683 43.1955 112.345C42.9432 112.802 42.5922 113.198 42.1681 113.504C41.744 113.809 41.2573 114.016 40.7432 114.11" stroke="white" stroke-width="0.5" stroke-linecap="round" stroke-linejoin="round"/>
<path d="M39.4741 111.149C40.1223 111.219 40.7719 111.032 41.2841 110.629C41.7962 110.225 42.1302 109.638 42.2146 108.991C42.7051 106.539 45.4455 103.02 48.1922 102.922C50.9388 102.824 50.7365 104.761 50.7365 104.761" stroke="white" stroke-width="0.5" stroke-linecap="round" stroke-linejoin="round"/>
<path d="M63.1759 145.261L64.8925 144.133C64.8925 144.133 66.3762 141.405 66.4927 141.227C66.6092 141.049 70.2325 139.271 70.5268 139.51C70.6936 139.656 70.8234 139.839 70.9054 140.045C70.9875 140.251 71.0195 140.473 70.9988 140.694C70.8823 140.994 70.4655 141.307 70.4655 141.589C70.4655 141.871 70.9437 144.133 70.9437 144.728C70.9437 145.323 68.4913 146.328 67.5043 146.628C66.5172 146.929 65.1929 146.923 64.8925 147.162L64.0649 147.812L63.1759 145.261Z" fill="white" stroke="#263238" stroke-width="0.75" stroke-linecap="round" stroke-linejoin="round"/>
<path d="M43.2507 133.288C43.2507 133.288 41.7119 133.698 42.2452 138.027C42.7786 142.355 47.107 156.94 48.6458 158.724C50.1847 160.509 65.199 150.54 65.199 150.54L63.3598 144.844C63.3598 144.844 53.2194 148.817 52.3917 148.995C51.5641 149.173 49.1853 136.249 48.3577 134.649" fill="white"/>
<g style="mix-blend-mode:multiply" opacity="0.5">
<path d="M64.9231 149.712C61.8026 150.699 54.5804 152.949 53.6424 152.851C52.4163 152.735 52.0852 152.011 51.3618 151.055C50.6383 150.098 49.5654 153.93 48.6029 154.292C47.6403 154.654 48.3638 150 48.7255 149.013C49.0872 148.026 47.8856 149.498 47.8856 149.498C47.8856 149.498 45.4884 144.593 44.2868 141.221C43.525 139.02 42.9247 136.766 42.4905 134.477L42.2207 135.139C42.0852 136.089 42.0852 137.053 42.2207 138.002C42.7541 142.331 47.0824 156.916 48.6213 158.7C50.1601 160.484 65.1745 150.515 65.1745 150.515L64.9231 149.712Z" fill="#F26627"/>
</g>
<path d="M43.2507 133.288C43.2507 133.288 41.7119 133.698 42.2452 138.027C42.7786 142.355 47.107 156.94 48.6458 158.724C50.1847 160.509 65.199 150.54 65.199 150.54L63.3598 144.844C63.3598 144.844 53.2194 148.817 52.3917 148.995C51.5641 149.173 49.1853 136.249 48.3577 134.649" stroke="#263238" stroke-width="0.75" stroke-linecap="round" stroke-linejoin="round"/>
<path d="M52.3856 148.995C51.7812 149.386 51.2625 149.896 50.8609 150.493C50.4594 151.091 50.1835 151.764 50.0498 152.471" stroke="#263238" stroke-width="0.5" stroke-linecap="round" stroke-linejoin="round"/>
<path d="M50.1479 150.313C49.736 150.724 49.4109 151.214 49.1919 151.753C48.9728 152.292 48.8643 152.87 48.8727 153.452" stroke="#263238" stroke-width="0.5" stroke-linecap="round" stroke-linejoin="round"/>
<path d="M34.8638 155.132C34.8638 155.132 33.233 149.694 33.4475 138.389C33.6621 127.083 34.3181 125.998 33.7725 125.128C33.2268 124.257 23.3501 130.075 15.9931 138.554C11.3091 143.974 5.32545 151.999 4.93308 164.641C4.60814 174.75 9.41471 182.923 12.4311 185.185C17.6484 189.097 24.7724 188.827 25.5326 188.827H98.3423C98.3423 188.827 103.014 187.196 104.099 182.96C105.184 178.723 108.881 166.652 101.169 152.195C96.1046 142.711 87.0371 132.521 85.5105 133.282C83.9839 134.042 78.2822 144.93 70.5145 151.76C63.1759 158.216 49.2099 162.955 34.8638 155.132Z" fill="#F26627" stroke="#263238" stroke-width="0.75" stroke-linecap="round" stroke-linejoin="round"/>
<path d="M101.187 152.195C100.102 150.172 98.8389 148.118 97.5085 146.144C93.2537 147.609 82.5861 151.987 76.6637 160.729C71.5812 168.233 74.9593 180.139 85.5534 188.827H98.3484C98.3484 188.827 103.02 187.196 104.105 182.954C105.19 178.711 108.881 166.652 101.187 152.195Z" fill="white" stroke="#263238" stroke-width="0.75" stroke-linecap="round" stroke-linejoin="round"/>
<path d="M103.523 175.069C103.408 176.132 103.239 177.221 103.014 178.337" stroke="#263238" stroke-width="0.75" stroke-linecap="round" stroke-linejoin="round"/>
<path d="M99.875 154.041C99.875 154.041 104.283 161.637 103.719 172.715" stroke="#263238" stroke-width="0.75" stroke-linecap="round" stroke-linejoin="round"/>
<path d="M33.1349 187.282V176.412C27.4639 174.573 23.8038 172.39 20.3889 170.342C15.4842 167.406 12.051 159.491 14.3562 154.365C16.4713 149.632 22.3262 147.517 25.4407 149.632C28.4801 151.63 31.6191 153.471 34.8454 155.15C34.8454 155.15 33.2146 149.712 33.4291 138.407C33.6437 127.102 34.2997 126.017 33.7541 125.146C33.2084 124.275 23.3317 130.094 15.9747 138.572C11.3091 143.974 5.32545 151.999 4.93308 164.641C4.60814 174.75 9.41471 182.923 12.4311 185.185C17.6484 189.097 24.7724 188.827 25.5326 188.827H33.1349C33.1349 188.269 33.1349 187.748 33.1349 187.282Z" fill="white" stroke="#263238" stroke-width="0.75" stroke-linecap="round" stroke-linejoin="round"/>
<path d="M7.24438 166.768C7.29991 168.106 7.44327 169.44 7.67354 170.759" stroke="#263238" stroke-width="0.75" stroke-linecap="round" stroke-linejoin="round"/>
<path d="M24.7724 133.337C23.0067 134.918 20.3705 136.776 18.7335 138.671C14.0435 144.09 7.63675 151.833 7.23212 164.475" stroke="#263238" stroke-width="0.75" stroke-linecap="round" stroke-linejoin="round"/>
<path d="M50.0804 187.521C50.0804 193.499 40.8842 194.044 29.4809 194.044C18.0775 194.044 8.88129 193.823 8.88129 187.521C8.88129 178.815 18.0775 170.355 29.4809 170.355C40.8842 170.355 50.0804 178.815 50.0804 187.521Z" fill="#F26627" stroke="#263238" stroke-width="0.75" stroke-linecap="round" stroke-linejoin="round"/>
<path d="M29.4564 170.349C18.9298 170.349 10.2608 177.595 9.01624 185.571C10.2424 190.593 18.9298 190.783 29.4564 190.783C39.983 190.783 48.6275 190.317 49.8904 185.535C48.652 177.571 39.9892 170.349 29.4564 170.349Z" fill="#325D79" stroke="#263238" stroke-width="0.75" stroke-linecap="round" stroke-linejoin="round"/>
<path d="M103.339 188.159C103.339 193.572 94.9887 194.069 84.6889 194.069C74.3891 194.069 66.0328 193.872 66.0328 188.159C66.0328 180.28 74.383 172.605 84.6889 172.605C94.9948 172.605 103.339 180.28 103.339 188.159Z" fill="#F26627" stroke="#263238" stroke-width="0.75" stroke-linecap="round" stroke-linejoin="round"/>
<path d="M84.6889 172.605C75.1555 172.605 67.3019 179.171 66.18 186.399C67.3019 190.942 75.1555 191.114 84.6889 191.114C94.2224 191.114 102.045 190.691 103.192 186.362C102.045 179.152 94.204 172.605 84.6889 172.605Z" fill="#325D79" stroke="#263238" stroke-width="0.75" stroke-linecap="round" stroke-linejoin="round"/>
<path d="M157.309 123.687C156.58 123.414 155.989 122.863 155.666 122.155C155.343 121.447 155.314 120.64 155.586 119.91L163.862 97.7841C163.997 97.4218 164.202 97.0896 164.465 96.8065C164.729 96.5234 165.045 96.2949 165.397 96.1341C165.748 95.9732 166.128 95.8832 166.514 95.8692C166.901 95.8551 167.286 95.9173 167.648 96.0522C168.011 96.187 168.343 96.3919 168.626 96.6551C168.909 96.9184 169.137 97.2348 169.298 97.5864C169.459 97.9379 169.549 98.3177 169.563 98.704C169.577 99.0903 169.515 99.4756 169.38 99.8379L161.104 121.964C160.969 122.327 160.763 122.66 160.499 122.943C160.235 123.227 159.917 123.455 159.565 123.615C159.212 123.775 158.831 123.864 158.444 123.877C158.057 123.889 157.671 123.824 157.309 123.687Z" fill="white" stroke="#263238" stroke-width="0.75" stroke-linecap="round" stroke-linejoin="round"/>
<path d="M166.836 101.769L162.189 113.982" stroke="#263238" stroke-width="0.75" stroke-linecap="round" stroke-linejoin="round"/>
<path d="M144.716 157.406C144.074 157.167 143.485 156.803 142.983 156.336C142.482 155.869 142.077 155.308 141.792 154.685C141.508 154.061 141.349 153.388 141.324 152.703C141.3 152.018 141.411 151.335 141.65 150.693L153.465 119.101C153.952 117.804 154.935 116.754 156.197 116.182C157.459 115.61 158.896 115.563 160.193 116.051C161.49 116.539 162.54 117.522 163.112 118.783C163.684 120.045 163.731 121.483 163.243 122.779L151.405 154.341C150.921 155.632 149.946 156.679 148.693 157.253C147.439 157.828 146.01 157.883 144.716 157.406Z" fill="#325D79" stroke="#263238" stroke-width="0.75" stroke-linecap="round" stroke-linejoin="round"/>
<path d="M188.57 41.0311C182.68 38.8285 176.269 38.422 170.148 39.8629C164.027 41.3039 158.47 44.5275 154.182 49.1262C149.893 53.725 147.064 59.4922 146.053 65.6987C145.041 71.9052 145.893 78.2722 148.501 83.9945C151.108 89.7168 155.354 94.5374 160.701 97.8468C166.048 101.156 172.256 102.806 178.541 102.587C184.825 102.368 190.904 100.29 196.007 96.6162C201.111 92.9426 205.011 87.8381 207.213 81.9482C210.165 74.0498 209.86 65.3024 206.364 57.6294C202.867 49.9564 196.467 43.986 188.57 41.0311ZM168.221 95.436C163.352 93.6139 159.132 90.3889 156.095 86.1685C153.058 81.9482 151.341 76.9222 151.161 71.7261C150.981 66.5299 152.345 61.3969 155.082 56.9762C157.819 52.5555 161.805 49.0456 166.536 46.8903C171.268 44.735 176.532 44.0311 181.664 44.8677C186.795 45.7042 191.564 48.0436 195.366 51.59C199.168 55.1364 201.833 59.7306 203.024 64.7917C204.215 69.8527 203.879 75.1532 202.057 80.0231C199.613 86.5532 194.676 91.8453 188.331 94.7357C181.986 97.626 174.752 97.8779 168.221 95.436Z" fill="#325D79" stroke="#263238" stroke-width="0.75" stroke-linecap="round" stroke-linejoin="round"/>
<path d="M156.113 61.1524C157.389 58.3396 159.209 55.8077 161.47 53.703C163.73 51.5984 166.386 49.9628 169.282 48.8908" stroke="#263238" stroke-width="0.75" stroke-linecap="round" stroke-linejoin="round"/>
<path d="M154.01 70.8882C154.004 68.5034 154.364 66.1317 155.077 63.8561" stroke="#263238" stroke-width="0.75" stroke-linecap="round" stroke-linejoin="round"/>
<path d="M147.291 77.3746C145.708 70.0828 146.821 62.4644 150.425 55.9305C154.028 49.3967 159.878 44.3903 166.889 41.8388C173.901 39.2873 181.6 39.3635 188.56 42.0534C195.52 44.7433 201.269 49.8646 204.743 56.4685" stroke="white" stroke-miterlimit="10"/>
<path d="M208.066 67.1361C208.964 74.4828 207.192 81.9077 203.071 88.0562C198.951 94.2046 192.758 98.6669 185.621 100.629C178.484 102.591 170.88 101.921 164.196 98.7429C157.511 95.5646 152.193 90.0891 149.21 83.3154" stroke="white" stroke-miterlimit="10"/>
<path d="M205.981 59.1354C206.782 61.086 207.379 63.1137 207.765 65.1865" stroke="white" stroke-miterlimit="10"/>
<path d="M53.9797 179.201C58.8656 179.201 62.8264 175.241 62.8264 170.355C62.8264 165.469 58.8656 161.508 53.9797 161.508C49.0937 161.508 45.1329 165.469 45.1329 170.355C45.1329 175.241 49.0937 179.201 53.9797 179.201Z" fill="#263238"/>
<path d="M53.9797 177.822C58.1038 177.822 61.447 174.479 61.447 170.355C61.447 166.231 58.1038 162.887 53.9797 162.887C49.8556 162.887 46.5123 166.231 46.5123 170.355C46.5123 174.479 49.8556 177.822 53.9797 177.822Z" fill="white" stroke="#263238" stroke-width="0.75" stroke-linecap="round" stroke-linejoin="round"/>
<path d="M51.7112 172.562C51.6464 172.495 51.6102 172.406 51.6102 172.313C51.6102 172.221 51.6464 172.132 51.7112 172.065L53.7344 170.042C53.8008 169.977 53.8899 169.941 53.9827 169.941C54.0755 169.941 54.1646 169.977 54.231 170.042C54.2647 170.075 54.2916 170.114 54.3099 170.157C54.3282 170.2 54.3377 170.246 54.3377 170.293C54.3377 170.34 54.3282 170.387 54.3099 170.43C54.2916 170.473 54.2647 170.512 54.231 170.545L52.2139 172.562C52.1814 172.596 52.1423 172.622 52.0991 172.641C52.0559 172.659 52.0095 172.668 51.9626 172.668C51.9157 172.668 51.8692 172.659 51.8261 172.641C51.7829 172.622 51.7438 172.596 51.7112 172.562Z" fill="#263238"/>
<path d="M48.6336 175.639C48.5733 175.582 48.5253 175.513 48.4925 175.437C48.4597 175.36 48.4427 175.278 48.4427 175.195C48.4427 175.112 48.4597 175.03 48.4925 174.953C48.5253 174.877 48.5733 174.808 48.6336 174.75L51.5151 171.869C51.5724 171.808 51.6417 171.759 51.7187 171.726C51.7957 171.692 51.8787 171.675 51.9626 171.675C52.0465 171.675 52.1295 171.692 52.2065 171.726C52.2835 171.759 52.3528 171.808 52.4102 171.869C52.4704 171.926 52.5185 171.995 52.5513 172.072C52.5841 172.148 52.601 172.23 52.601 172.313C52.601 172.397 52.5841 172.479 52.5513 172.555C52.5185 172.632 52.4704 172.701 52.4102 172.758L49.5287 175.639C49.4713 175.701 49.402 175.75 49.325 175.783C49.248 175.816 49.165 175.834 49.0811 175.834C48.9972 175.834 48.9142 175.816 48.8372 175.783C48.7602 175.75 48.6909 175.701 48.6336 175.639Z" fill="#263238"/>
<path d="M59.289 170.477C59.8272 169.94 60.1939 169.255 60.3427 168.509C60.4916 167.763 60.4158 166.99 60.125 166.287C59.8343 165.585 59.3416 164.984 58.7093 164.561C58.077 164.139 57.3336 163.913 56.573 163.913C55.8125 163.913 55.069 164.139 54.4368 164.561C53.8045 164.984 53.3118 165.585 53.021 166.287C52.7303 166.99 52.6545 167.763 52.8033 168.509C52.9521 169.255 53.3189 169.94 53.8571 170.477C54.5778 171.197 55.5546 171.601 56.573 171.601C57.5915 171.601 58.5683 171.197 59.289 170.477Z" fill="#263238"/>
<path d="M58.5532 169.735C58.9432 169.344 59.2085 168.846 59.3156 168.304C59.4227 167.762 59.3667 167.2 59.1549 166.69C58.943 166.18 58.5846 165.744 58.1251 165.437C57.6656 165.13 57.1254 164.966 56.5729 164.966C56.0204 164.966 55.4803 165.13 55.0208 165.437C54.5612 165.744 54.2029 166.18 53.991 166.69C53.7791 167.2 53.7232 167.762 53.8303 168.304C53.9374 168.846 54.2027 169.344 54.5927 169.735C54.8524 169.996 55.161 170.203 55.5008 170.344C55.8407 170.485 56.205 170.558 56.5729 170.558C56.9409 170.558 57.3052 170.485 57.645 170.344C57.9848 170.203 58.2935 169.996 58.5532 169.735Z" fill="white"/>
<path d="M163.721 138.805C163.721 139.584 163.412 140.331 162.861 140.882C162.311 141.433 161.564 141.742 160.785 141.742H140.081C139.684 141.76 139.288 141.698 138.917 141.559C138.545 141.419 138.205 141.206 137.918 140.932C137.631 140.658 137.403 140.328 137.247 139.963C137.091 139.598 137.01 139.205 137.01 138.809C137.01 138.412 137.091 138.019 137.247 137.654C137.403 137.289 137.631 136.959 137.918 136.685C138.205 136.411 138.545 136.198 138.917 136.058C139.288 135.919 139.684 135.857 140.081 135.875H160.785C161.563 135.875 162.309 136.183 162.859 136.733C163.41 137.282 163.72 138.028 163.721 138.805Z" fill="#F26627" stroke="#263238" stroke-width="0.75" stroke-linecap="round" stroke-linejoin="round"/>
<path d="M151.331 140.835C152.232 140.835 152.962 140.105 152.962 139.204C152.962 138.303 152.232 137.573 151.331 137.573C150.43 137.573 149.7 138.303 149.7 139.204C149.7 140.105 150.43 140.835 151.331 140.835Z" fill="white" stroke="#263238" stroke-width="0.75" stroke-linecap="round" stroke-linejoin="round"/>
<path d="M126.544 158.344C128.738 158.344 130.517 156.566 130.517 154.372C130.517 152.177 128.738 150.399 126.544 150.399C124.35 150.399 122.571 152.177 122.571 154.372C122.571 156.566 124.35 158.344 126.544 158.344Z" fill="#F26627" stroke="#263238" stroke-width="0.75" stroke-linecap="round" stroke-linejoin="round"/>
<path d="M128.034 154.372C128.035 154.077 127.949 153.788 127.786 153.542C127.623 153.296 127.391 153.105 127.118 152.991C126.846 152.877 126.547 152.847 126.257 152.904C125.968 152.96 125.702 153.102 125.493 153.31C125.284 153.518 125.141 153.783 125.083 154.073C125.025 154.362 125.055 154.662 125.167 154.934C125.28 155.207 125.471 155.44 125.716 155.604C125.961 155.768 126.249 155.855 126.544 155.855C126.938 155.855 127.316 155.699 127.595 155.421C127.875 155.143 128.032 154.766 128.034 154.372Z" fill="white" stroke="#263238" stroke-width="0.75" stroke-linecap="round" stroke-linejoin="round"/>
<path d="M140.081 142.852C142.275 142.852 144.054 141.073 144.054 138.879C144.054 136.685 142.275 134.906 140.081 134.906C137.887 134.906 136.108 136.685 136.108 138.879C136.108 141.073 137.887 142.852 140.081 142.852Z" fill="#F26627" stroke="#263238" stroke-width="0.75" stroke-linecap="round" stroke-linejoin="round"/>
<path d="M140.081 140.412C140.927 140.412 141.614 139.726 141.614 138.879C141.614 138.033 140.927 137.346 140.081 137.346C139.234 137.346 138.548 138.033 138.548 138.879C138.548 139.726 139.234 140.412 140.081 140.412Z" fill="white" stroke="#263238" stroke-width="0.75" stroke-linecap="round" stroke-linejoin="round"/>
</svg>
